%TF.GenerationSoftware,KiCad,Pcbnew,8.0.6*%
%TF.CreationDate,2025-02-24T13:58:07+01:00*%
%TF.ProjectId,DLA OCBEGO,444c4120-4f43-4424-9547-4f2e6b696361,rev?*%
%TF.SameCoordinates,Original*%
%TF.FileFunction,Soldermask,Bot*%
%TF.FilePolarity,Negative*%
%FSLAX46Y46*%
G04 Gerber Fmt 4.6, Leading zero omitted, Abs format (unit mm)*
G04 Created by KiCad (PCBNEW 8.0.6) date 2025-02-24 13:58:07*
%MOMM*%
%LPD*%
G01*
G04 APERTURE LIST*
G04 Aperture macros list*
%AMRoundRect*
0 Rectangle with rounded corners*
0 $1 Rounding radius*
0 $2 $3 $4 $5 $6 $7 $8 $9 X,Y pos of 4 corners*
0 Add a 4 corners polygon primitive as box body*
4,1,4,$2,$3,$4,$5,$6,$7,$8,$9,$2,$3,0*
0 Add four circle primitives for the rounded corners*
1,1,$1+$1,$2,$3*
1,1,$1+$1,$4,$5*
1,1,$1+$1,$6,$7*
1,1,$1+$1,$8,$9*
0 Add four rect primitives between the rounded corners*
20,1,$1+$1,$2,$3,$4,$5,0*
20,1,$1+$1,$4,$5,$6,$7,0*
20,1,$1+$1,$6,$7,$8,$9,0*
20,1,$1+$1,$8,$9,$2,$3,0*%
G04 Aperture macros list end*
%ADD10RoundRect,0.250000X-1.750000X-1.750000X1.750000X-1.750000X1.750000X1.750000X-1.750000X1.750000X0*%
%ADD11R,1.905000X2.000000*%
%ADD12O,1.905000X2.000000*%
%ADD13R,2.000000X2.000000*%
%ADD14C,2.000000*%
%ADD15R,3.200000X2.000000*%
%ADD16RoundRect,0.250000X-0.750000X-0.750000X0.750000X-0.750000X0.750000X0.750000X-0.750000X0.750000X0*%
%ADD17R,1.600000X1.600000*%
%ADD18C,1.600000*%
%ADD19O,1.600000X1.600000*%
%ADD20RoundRect,0.250200X-0.649800X-0.649800X0.649800X-0.649800X0.649800X0.649800X-0.649800X0.649800X0*%
%ADD21C,1.800000*%
%ADD22RoundRect,0.250002X1.499998X1.499998X-1.499998X1.499998X-1.499998X-1.499998X1.499998X-1.499998X0*%
%ADD23C,3.500000*%
%ADD24R,1.070000X1.800000*%
%ADD25O,1.070000X1.800000*%
G04 APERTURE END LIST*
D10*
%TO.C,J6*%
X135000000Y-133000000D03*
%TD*%
%TO.C,J5*%
X76000000Y-133000000D03*
%TD*%
%TO.C,J4*%
X135000000Y-65000000D03*
%TD*%
%TO.C,J3*%
X76000000Y-65000000D03*
%TD*%
D11*
%TO.C,Q1*%
X102920000Y-72000000D03*
D12*
X105460000Y-72000000D03*
X108000000Y-72000000D03*
%TD*%
D13*
%TO.C,SW1*%
X91030977Y-124500000D03*
D14*
X91030977Y-119500000D03*
X91030977Y-122000000D03*
D15*
X83530977Y-127600000D03*
X83530977Y-116400000D03*
D14*
X76530977Y-119500000D03*
X76530977Y-124500000D03*
%TD*%
D16*
%TO.C,J2*%
X109620761Y-65681049D03*
D14*
X114120761Y-65681049D03*
X118620761Y-65681049D03*
X123120761Y-65681049D03*
%TD*%
D17*
%TO.C,C7*%
X88794888Y-85000000D03*
D18*
X91294888Y-85000000D03*
%TD*%
D17*
%TO.C,U2*%
X124120000Y-111200000D03*
D19*
X124120000Y-108660000D03*
X124120000Y-106120000D03*
X124120000Y-103580000D03*
X124120000Y-101040000D03*
X124120000Y-98500000D03*
X124120000Y-95960000D03*
X124120000Y-93420000D03*
X124120000Y-90880000D03*
X124120000Y-88340000D03*
X124120000Y-85800000D03*
X124120000Y-83260000D03*
X124120000Y-80720000D03*
X124120000Y-78180000D03*
X116500000Y-78180000D03*
X116500000Y-80720000D03*
X116500000Y-83260000D03*
X116500000Y-85800000D03*
X116500000Y-88340000D03*
X116500000Y-90880000D03*
X116500000Y-93420000D03*
X116500000Y-95960000D03*
X116500000Y-98500000D03*
X116500000Y-101040000D03*
X116500000Y-103580000D03*
X116500000Y-106120000D03*
X116500000Y-108660000D03*
X116500000Y-111200000D03*
%TD*%
D11*
%TO.C,Q3*%
X124920000Y-72000000D03*
D12*
X127460000Y-72000000D03*
X130000000Y-72000000D03*
%TD*%
D17*
%TO.C,C3*%
X83500000Y-67000000D03*
D18*
X81000000Y-67000000D03*
%TD*%
D20*
%TO.C,U5*%
X105460000Y-130575000D03*
D21*
X108000000Y-130575000D03*
X110540000Y-130575000D03*
%TD*%
D22*
%TO.C,J1*%
X94960000Y-67055000D03*
D23*
X87960000Y-67055000D03*
%TD*%
D17*
%TO.C,U4*%
X99000000Y-100982500D03*
D18*
X99000000Y-103522500D03*
X99000000Y-106062500D03*
X99000000Y-108602500D03*
X99000000Y-111142500D03*
X104080000Y-111142500D03*
X104080000Y-108602500D03*
X104080000Y-106062500D03*
X104080000Y-103522500D03*
X104080000Y-100982500D03*
%TD*%
D24*
%TO.C,D1*%
X82730000Y-106000000D03*
D25*
X84000000Y-106000000D03*
X85270000Y-106000000D03*
X86540000Y-106000000D03*
%TD*%
D11*
%TO.C,Q2*%
X113920000Y-72000000D03*
D12*
X116460000Y-72000000D03*
X119000000Y-72000000D03*
%TD*%
M02*
