%TF.GenerationSoftware,KiCad,Pcbnew,8.0.6*%
%TF.CreationDate,2025-02-24T13:58:07+01:00*%
%TF.ProjectId,DLA OCBEGO,444c4120-4f43-4424-9547-4f2e6b696361,rev?*%
%TF.SameCoordinates,Original*%
%TF.FileFunction,Soldermask,Top*%
%TF.FilePolarity,Negative*%
%FSLAX46Y46*%
G04 Gerber Fmt 4.6, Leading zero omitted, Abs format (unit mm)*
G04 Created by KiCad (PCBNEW 8.0.6) date 2025-02-24 13:58:07*
%MOMM*%
%LPD*%
G01*
G04 APERTURE LIST*
G04 Aperture macros list*
%AMRoundRect*
0 Rectangle with rounded corners*
0 $1 Rounding radius*
0 $2 $3 $4 $5 $6 $7 $8 $9 X,Y pos of 4 corners*
0 Add a 4 corners polygon primitive as box body*
4,1,4,$2,$3,$4,$5,$6,$7,$8,$9,$2,$3,0*
0 Add four circle primitives for the rounded corners*
1,1,$1+$1,$2,$3*
1,1,$1+$1,$4,$5*
1,1,$1+$1,$6,$7*
1,1,$1+$1,$8,$9*
0 Add four rect primitives between the rounded corners*
20,1,$1+$1,$2,$3,$4,$5,0*
20,1,$1+$1,$4,$5,$6,$7,0*
20,1,$1+$1,$6,$7,$8,$9,0*
20,1,$1+$1,$8,$9,$2,$3,0*%
G04 Aperture macros list end*
%ADD10RoundRect,0.250000X-1.750000X-1.750000X1.750000X-1.750000X1.750000X1.750000X-1.750000X1.750000X0*%
%ADD11RoundRect,0.250000X-0.350000X-0.450000X0.350000X-0.450000X0.350000X0.450000X-0.350000X0.450000X0*%
%ADD12R,1.905000X2.000000*%
%ADD13O,1.905000X2.000000*%
%ADD14R,2.000000X2.000000*%
%ADD15C,2.000000*%
%ADD16R,3.200000X2.000000*%
%ADD17R,2.000000X4.500000*%
%ADD18R,1.600000X1.400000*%
%ADD19RoundRect,0.250000X-0.750000X-0.750000X0.750000X-0.750000X0.750000X0.750000X-0.750000X0.750000X0*%
%ADD20RoundRect,0.250000X0.450000X-0.350000X0.450000X0.350000X-0.450000X0.350000X-0.450000X-0.350000X0*%
%ADD21RoundRect,0.250000X0.350000X0.450000X-0.350000X0.450000X-0.350000X-0.450000X0.350000X-0.450000X0*%
%ADD22R,1.600000X1.600000*%
%ADD23C,1.600000*%
%ADD24RoundRect,0.250000X-0.650000X0.412500X-0.650000X-0.412500X0.650000X-0.412500X0.650000X0.412500X0*%
%ADD25O,1.600000X1.600000*%
%ADD26RoundRect,0.250000X0.412500X0.650000X-0.412500X0.650000X-0.412500X-0.650000X0.412500X-0.650000X0*%
%ADD27RoundRect,0.250000X-0.850000X-0.350000X0.850000X-0.350000X0.850000X0.350000X-0.850000X0.350000X0*%
%ADD28RoundRect,0.249997X-2.950003X-2.650003X2.950003X-2.650003X2.950003X2.650003X-2.950003X2.650003X0*%
%ADD29RoundRect,0.250000X0.650000X-0.412500X0.650000X0.412500X-0.650000X0.412500X-0.650000X-0.412500X0*%
%ADD30RoundRect,0.250200X-0.649800X-0.649800X0.649800X-0.649800X0.649800X0.649800X-0.649800X0.649800X0*%
%ADD31C,1.800000*%
%ADD32RoundRect,0.250002X1.499998X1.499998X-1.499998X1.499998X-1.499998X-1.499998X1.499998X-1.499998X0*%
%ADD33C,3.500000*%
%ADD34RoundRect,0.250000X-0.412500X-0.650000X0.412500X-0.650000X0.412500X0.650000X-0.412500X0.650000X0*%
%ADD35RoundRect,0.250000X-0.600000X0.400000X-0.600000X-0.400000X0.600000X-0.400000X0.600000X0.400000X0*%
%ADD36R,1.070000X1.800000*%
%ADD37O,1.070000X1.800000*%
G04 APERTURE END LIST*
D10*
%TO.C,J6*%
X135000000Y-133000000D03*
%TD*%
%TO.C,J5*%
X76000000Y-133000000D03*
%TD*%
%TO.C,J4*%
X135000000Y-65000000D03*
%TD*%
%TO.C,J3*%
X76000000Y-65000000D03*
%TD*%
D11*
%TO.C,R7*%
X109000000Y-100500000D03*
X111000000Y-100500000D03*
%TD*%
D12*
%TO.C,Q1*%
X102920000Y-72000000D03*
D13*
X105460000Y-72000000D03*
X108000000Y-72000000D03*
%TD*%
D14*
%TO.C,SW1*%
X91030977Y-124500000D03*
D15*
X91030977Y-119500000D03*
X91030977Y-122000000D03*
D16*
X83530977Y-127600000D03*
X83530977Y-116400000D03*
D15*
X76530977Y-119500000D03*
X76530977Y-124500000D03*
%TD*%
D17*
%TO.C,Y1*%
X130500000Y-85250000D03*
X130500000Y-93750000D03*
%TD*%
D18*
%TO.C,SW3*%
X111000000Y-119250000D03*
X119000000Y-119250000D03*
X111000000Y-123750000D03*
X119000000Y-123750000D03*
%TD*%
D19*
%TO.C,J2*%
X109620761Y-65681049D03*
D15*
X114120761Y-65681049D03*
X118620761Y-65681049D03*
X123120761Y-65681049D03*
%TD*%
D11*
%TO.C,R10*%
X109000000Y-109500000D03*
X111000000Y-109500000D03*
%TD*%
D20*
%TO.C,R13*%
X125000000Y-124000000D03*
X125000000Y-122000000D03*
%TD*%
D21*
%TO.C,R18*%
X131000000Y-101000000D03*
X129000000Y-101000000D03*
%TD*%
D20*
%TO.C,R2*%
X122000000Y-124000000D03*
X122000000Y-122000000D03*
%TD*%
D22*
%TO.C,C7*%
X88794888Y-85000000D03*
D23*
X91294888Y-85000000D03*
%TD*%
D24*
%TO.C,C6*%
X128000000Y-121437500D03*
X128000000Y-124562500D03*
%TD*%
D11*
%TO.C,R8*%
X109000000Y-103500000D03*
X111000000Y-103500000D03*
%TD*%
D22*
%TO.C,U2*%
X124120000Y-111200000D03*
D25*
X124120000Y-108660000D03*
X124120000Y-106120000D03*
X124120000Y-103580000D03*
X124120000Y-101040000D03*
X124120000Y-98500000D03*
X124120000Y-95960000D03*
X124120000Y-93420000D03*
X124120000Y-90880000D03*
X124120000Y-88340000D03*
X124120000Y-85800000D03*
X124120000Y-83260000D03*
X124120000Y-80720000D03*
X124120000Y-78180000D03*
X116500000Y-78180000D03*
X116500000Y-80720000D03*
X116500000Y-83260000D03*
X116500000Y-85800000D03*
X116500000Y-88340000D03*
X116500000Y-90880000D03*
X116500000Y-93420000D03*
X116500000Y-95960000D03*
X116500000Y-98500000D03*
X116500000Y-101040000D03*
X116500000Y-103580000D03*
X116500000Y-106120000D03*
X116500000Y-108660000D03*
X116500000Y-111200000D03*
%TD*%
D21*
%TO.C,R1*%
X94000000Y-109000000D03*
X92000000Y-109000000D03*
%TD*%
D12*
%TO.C,Q3*%
X124920000Y-72000000D03*
D13*
X127460000Y-72000000D03*
X130000000Y-72000000D03*
%TD*%
D11*
%TO.C,R12*%
X92000000Y-106000000D03*
X94000000Y-106000000D03*
%TD*%
%TO.C,R11*%
X109000000Y-112500000D03*
X111000000Y-112500000D03*
%TD*%
D26*
%TO.C,C1*%
X84562500Y-72000000D03*
X81437500Y-72000000D03*
%TD*%
D11*
%TO.C,R6*%
X109000000Y-97500000D03*
X111000000Y-97500000D03*
%TD*%
%TO.C,R4*%
X109000000Y-115000000D03*
X111000000Y-115000000D03*
%TD*%
D27*
%TO.C,U1*%
X88000000Y-72000000D03*
D28*
X94300000Y-74280000D03*
D27*
X88000000Y-76560000D03*
%TD*%
D11*
%TO.C,R9*%
X109000000Y-106500000D03*
X111000000Y-106500000D03*
%TD*%
D22*
%TO.C,C3*%
X83500000Y-67000000D03*
D23*
X81000000Y-67000000D03*
%TD*%
D29*
%TO.C,C5*%
X135000000Y-88562500D03*
X135000000Y-85437500D03*
%TD*%
D30*
%TO.C,U5*%
X105460000Y-130575000D03*
D31*
X108000000Y-130575000D03*
X110540000Y-130575000D03*
%TD*%
D11*
%TO.C,R17*%
X129000000Y-98471556D03*
X131000000Y-98471556D03*
%TD*%
D32*
%TO.C,J1*%
X94960000Y-67055000D03*
D33*
X87960000Y-67055000D03*
%TD*%
D34*
%TO.C,C2*%
X88437500Y-80000000D03*
X91562500Y-80000000D03*
%TD*%
D29*
%TO.C,C4*%
X135000000Y-94562500D03*
X135000000Y-91437500D03*
%TD*%
D11*
%TO.C,R5*%
X109000000Y-94500000D03*
X111000000Y-94500000D03*
%TD*%
D21*
%TO.C,R3*%
X131000000Y-104000000D03*
X129000000Y-104000000D03*
%TD*%
D22*
%TO.C,U4*%
X99000000Y-100982500D03*
D23*
X99000000Y-103522500D03*
X99000000Y-106062500D03*
X99000000Y-108602500D03*
X99000000Y-111142500D03*
X104080000Y-111142500D03*
X104080000Y-108602500D03*
X104080000Y-106062500D03*
X104080000Y-103522500D03*
X104080000Y-100982500D03*
%TD*%
D35*
%TO.C,D2*%
X131000000Y-121250000D03*
X131000000Y-124750000D03*
%TD*%
D36*
%TO.C,D1*%
X82730000Y-106000000D03*
D37*
X84000000Y-106000000D03*
X85270000Y-106000000D03*
X86540000Y-106000000D03*
%TD*%
D18*
%TO.C,SW2*%
X97500000Y-119250000D03*
X105500000Y-119250000D03*
X97500000Y-123750000D03*
X105500000Y-123750000D03*
%TD*%
D12*
%TO.C,Q2*%
X113920000Y-72000000D03*
D13*
X116460000Y-72000000D03*
X119000000Y-72000000D03*
%TD*%
M02*
