%TF.GenerationSoftware,KiCad,Pcbnew,8.0.6*%
%TF.CreationDate,2025-02-24T13:58:07+01:00*%
%TF.ProjectId,DLA OCBEGO,444c4120-4f43-4424-9547-4f2e6b696361,rev?*%
%TF.SameCoordinates,Original*%
%TF.FileFunction,Paste,Top*%
%TF.FilePolarity,Positive*%
%FSLAX46Y46*%
G04 Gerber Fmt 4.6, Leading zero omitted, Abs format (unit mm)*
G04 Created by KiCad (PCBNEW 8.0.6) date 2025-02-24 13:58:07*
%MOMM*%
%LPD*%
G01*
G04 APERTURE LIST*
G04 Aperture macros list*
%AMRoundRect*
0 Rectangle with rounded corners*
0 $1 Rounding radius*
0 $2 $3 $4 $5 $6 $7 $8 $9 X,Y pos of 4 corners*
0 Add a 4 corners polygon primitive as box body*
4,1,4,$2,$3,$4,$5,$6,$7,$8,$9,$2,$3,0*
0 Add four circle primitives for the rounded corners*
1,1,$1+$1,$2,$3*
1,1,$1+$1,$4,$5*
1,1,$1+$1,$6,$7*
1,1,$1+$1,$8,$9*
0 Add four rect primitives between the rounded corners*
20,1,$1+$1,$2,$3,$4,$5,0*
20,1,$1+$1,$4,$5,$6,$7,0*
20,1,$1+$1,$6,$7,$8,$9,0*
20,1,$1+$1,$8,$9,$2,$3,0*%
G04 Aperture macros list end*
%ADD10RoundRect,0.250000X-0.350000X-0.450000X0.350000X-0.450000X0.350000X0.450000X-0.350000X0.450000X0*%
%ADD11R,2.000000X4.500000*%
%ADD12R,1.600000X1.400000*%
%ADD13RoundRect,0.250000X0.450000X-0.350000X0.450000X0.350000X-0.450000X0.350000X-0.450000X-0.350000X0*%
%ADD14RoundRect,0.250000X0.350000X0.450000X-0.350000X0.450000X-0.350000X-0.450000X0.350000X-0.450000X0*%
%ADD15RoundRect,0.250000X-0.650000X0.412500X-0.650000X-0.412500X0.650000X-0.412500X0.650000X0.412500X0*%
%ADD16RoundRect,0.250000X0.412500X0.650000X-0.412500X0.650000X-0.412500X-0.650000X0.412500X-0.650000X0*%
%ADD17RoundRect,0.250000X-0.850000X-0.350000X0.850000X-0.350000X0.850000X0.350000X-0.850000X0.350000X0*%
%ADD18RoundRect,0.250000X-1.275000X-1.125000X1.275000X-1.125000X1.275000X1.125000X-1.275000X1.125000X0*%
%ADD19RoundRect,0.250000X0.650000X-0.412500X0.650000X0.412500X-0.650000X0.412500X-0.650000X-0.412500X0*%
%ADD20RoundRect,0.250000X-0.412500X-0.650000X0.412500X-0.650000X0.412500X0.650000X-0.412500X0.650000X0*%
%ADD21RoundRect,0.250000X-0.600000X0.400000X-0.600000X-0.400000X0.600000X-0.400000X0.600000X0.400000X0*%
G04 APERTURE END LIST*
D10*
%TO.C,R7*%
X109000000Y-100500000D03*
X111000000Y-100500000D03*
%TD*%
D11*
%TO.C,Y1*%
X130500000Y-85250000D03*
X130500000Y-93750000D03*
%TD*%
D12*
%TO.C,SW3*%
X111000000Y-119250000D03*
X119000000Y-119250000D03*
X111000000Y-123750000D03*
X119000000Y-123750000D03*
%TD*%
D10*
%TO.C,R10*%
X109000000Y-109500000D03*
X111000000Y-109500000D03*
%TD*%
D13*
%TO.C,R13*%
X125000000Y-124000000D03*
X125000000Y-122000000D03*
%TD*%
D14*
%TO.C,R18*%
X131000000Y-101000000D03*
X129000000Y-101000000D03*
%TD*%
D13*
%TO.C,R2*%
X122000000Y-124000000D03*
X122000000Y-122000000D03*
%TD*%
D15*
%TO.C,C6*%
X128000000Y-121437500D03*
X128000000Y-124562500D03*
%TD*%
D10*
%TO.C,R8*%
X109000000Y-103500000D03*
X111000000Y-103500000D03*
%TD*%
D14*
%TO.C,R1*%
X94000000Y-109000000D03*
X92000000Y-109000000D03*
%TD*%
D10*
%TO.C,R12*%
X92000000Y-106000000D03*
X94000000Y-106000000D03*
%TD*%
%TO.C,R11*%
X109000000Y-112500000D03*
X111000000Y-112500000D03*
%TD*%
D16*
%TO.C,C1*%
X84562500Y-72000000D03*
X81437500Y-72000000D03*
%TD*%
D10*
%TO.C,R6*%
X109000000Y-97500000D03*
X111000000Y-97500000D03*
%TD*%
%TO.C,R4*%
X109000000Y-115000000D03*
X111000000Y-115000000D03*
%TD*%
D17*
%TO.C,U1*%
X88000000Y-72000000D03*
D18*
X92625000Y-72755000D03*
X92625000Y-75805000D03*
X95975000Y-72755000D03*
X95975000Y-75805000D03*
D17*
X88000000Y-76560000D03*
%TD*%
D10*
%TO.C,R9*%
X109000000Y-106500000D03*
X111000000Y-106500000D03*
%TD*%
D19*
%TO.C,C5*%
X135000000Y-88562500D03*
X135000000Y-85437500D03*
%TD*%
D10*
%TO.C,R17*%
X129000000Y-98471556D03*
X131000000Y-98471556D03*
%TD*%
D20*
%TO.C,C2*%
X88437500Y-80000000D03*
X91562500Y-80000000D03*
%TD*%
D19*
%TO.C,C4*%
X135000000Y-94562500D03*
X135000000Y-91437500D03*
%TD*%
D10*
%TO.C,R5*%
X109000000Y-94500000D03*
X111000000Y-94500000D03*
%TD*%
D14*
%TO.C,R3*%
X131000000Y-104000000D03*
X129000000Y-104000000D03*
%TD*%
D21*
%TO.C,D2*%
X131000000Y-121250000D03*
X131000000Y-124750000D03*
%TD*%
D12*
%TO.C,SW2*%
X97500000Y-119250000D03*
X105500000Y-119250000D03*
X97500000Y-123750000D03*
X105500000Y-123750000D03*
%TD*%
M02*
