%TF.GenerationSoftware,KiCad,Pcbnew,8.0.6*%
%TF.CreationDate,2025-02-24T13:58:07+01:00*%
%TF.ProjectId,DLA OCBEGO,444c4120-4f43-4424-9547-4f2e6b696361,rev?*%
%TF.SameCoordinates,Original*%
%TF.FileFunction,Legend,Top*%
%TF.FilePolarity,Positive*%
%FSLAX46Y46*%
G04 Gerber Fmt 4.6, Leading zero omitted, Abs format (unit mm)*
G04 Created by KiCad (PCBNEW 8.0.6) date 2025-02-24 13:58:07*
%MOMM*%
%LPD*%
G01*
G04 APERTURE LIST*
%ADD10C,0.150000*%
%ADD11C,0.120000*%
G04 APERTURE END LIST*
D10*
X134666666Y-129254819D02*
X134666666Y-129969104D01*
X134666666Y-129969104D02*
X134619047Y-130111961D01*
X134619047Y-130111961D02*
X134523809Y-130207200D01*
X134523809Y-130207200D02*
X134380952Y-130254819D01*
X134380952Y-130254819D02*
X134285714Y-130254819D01*
X135571428Y-129254819D02*
X135380952Y-129254819D01*
X135380952Y-129254819D02*
X135285714Y-129302438D01*
X135285714Y-129302438D02*
X135238095Y-129350057D01*
X135238095Y-129350057D02*
X135142857Y-129492914D01*
X135142857Y-129492914D02*
X135095238Y-129683390D01*
X135095238Y-129683390D02*
X135095238Y-130064342D01*
X135095238Y-130064342D02*
X135142857Y-130159580D01*
X135142857Y-130159580D02*
X135190476Y-130207200D01*
X135190476Y-130207200D02*
X135285714Y-130254819D01*
X135285714Y-130254819D02*
X135476190Y-130254819D01*
X135476190Y-130254819D02*
X135571428Y-130207200D01*
X135571428Y-130207200D02*
X135619047Y-130159580D01*
X135619047Y-130159580D02*
X135666666Y-130064342D01*
X135666666Y-130064342D02*
X135666666Y-129826247D01*
X135666666Y-129826247D02*
X135619047Y-129731009D01*
X135619047Y-129731009D02*
X135571428Y-129683390D01*
X135571428Y-129683390D02*
X135476190Y-129635771D01*
X135476190Y-129635771D02*
X135285714Y-129635771D01*
X135285714Y-129635771D02*
X135190476Y-129683390D01*
X135190476Y-129683390D02*
X135142857Y-129731009D01*
X135142857Y-129731009D02*
X135095238Y-129826247D01*
X75666666Y-129254819D02*
X75666666Y-129969104D01*
X75666666Y-129969104D02*
X75619047Y-130111961D01*
X75619047Y-130111961D02*
X75523809Y-130207200D01*
X75523809Y-130207200D02*
X75380952Y-130254819D01*
X75380952Y-130254819D02*
X75285714Y-130254819D01*
X76619047Y-129254819D02*
X76142857Y-129254819D01*
X76142857Y-129254819D02*
X76095238Y-129731009D01*
X76095238Y-129731009D02*
X76142857Y-129683390D01*
X76142857Y-129683390D02*
X76238095Y-129635771D01*
X76238095Y-129635771D02*
X76476190Y-129635771D01*
X76476190Y-129635771D02*
X76571428Y-129683390D01*
X76571428Y-129683390D02*
X76619047Y-129731009D01*
X76619047Y-129731009D02*
X76666666Y-129826247D01*
X76666666Y-129826247D02*
X76666666Y-130064342D01*
X76666666Y-130064342D02*
X76619047Y-130159580D01*
X76619047Y-130159580D02*
X76571428Y-130207200D01*
X76571428Y-130207200D02*
X76476190Y-130254819D01*
X76476190Y-130254819D02*
X76238095Y-130254819D01*
X76238095Y-130254819D02*
X76142857Y-130207200D01*
X76142857Y-130207200D02*
X76095238Y-130159580D01*
X134666666Y-61254819D02*
X134666666Y-61969104D01*
X134666666Y-61969104D02*
X134619047Y-62111961D01*
X134619047Y-62111961D02*
X134523809Y-62207200D01*
X134523809Y-62207200D02*
X134380952Y-62254819D01*
X134380952Y-62254819D02*
X134285714Y-62254819D01*
X135571428Y-61588152D02*
X135571428Y-62254819D01*
X135333333Y-61207200D02*
X135095238Y-61921485D01*
X135095238Y-61921485D02*
X135714285Y-61921485D01*
X75666666Y-61254819D02*
X75666666Y-61969104D01*
X75666666Y-61969104D02*
X75619047Y-62111961D01*
X75619047Y-62111961D02*
X75523809Y-62207200D01*
X75523809Y-62207200D02*
X75380952Y-62254819D01*
X75380952Y-62254819D02*
X75285714Y-62254819D01*
X76047619Y-61254819D02*
X76666666Y-61254819D01*
X76666666Y-61254819D02*
X76333333Y-61635771D01*
X76333333Y-61635771D02*
X76476190Y-61635771D01*
X76476190Y-61635771D02*
X76571428Y-61683390D01*
X76571428Y-61683390D02*
X76619047Y-61731009D01*
X76619047Y-61731009D02*
X76666666Y-61826247D01*
X76666666Y-61826247D02*
X76666666Y-62064342D01*
X76666666Y-62064342D02*
X76619047Y-62159580D01*
X76619047Y-62159580D02*
X76571428Y-62207200D01*
X76571428Y-62207200D02*
X76476190Y-62254819D01*
X76476190Y-62254819D02*
X76190476Y-62254819D01*
X76190476Y-62254819D02*
X76095238Y-62207200D01*
X76095238Y-62207200D02*
X76047619Y-62159580D01*
X109833333Y-99304819D02*
X109500000Y-98828628D01*
X109261905Y-99304819D02*
X109261905Y-98304819D01*
X109261905Y-98304819D02*
X109642857Y-98304819D01*
X109642857Y-98304819D02*
X109738095Y-98352438D01*
X109738095Y-98352438D02*
X109785714Y-98400057D01*
X109785714Y-98400057D02*
X109833333Y-98495295D01*
X109833333Y-98495295D02*
X109833333Y-98638152D01*
X109833333Y-98638152D02*
X109785714Y-98733390D01*
X109785714Y-98733390D02*
X109738095Y-98781009D01*
X109738095Y-98781009D02*
X109642857Y-98828628D01*
X109642857Y-98828628D02*
X109261905Y-98828628D01*
X110166667Y-98304819D02*
X110833333Y-98304819D01*
X110833333Y-98304819D02*
X110404762Y-99304819D01*
X105364761Y-68280057D02*
X105269523Y-68232438D01*
X105269523Y-68232438D02*
X105174285Y-68137200D01*
X105174285Y-68137200D02*
X105031428Y-67994342D01*
X105031428Y-67994342D02*
X104936190Y-67946723D01*
X104936190Y-67946723D02*
X104840952Y-67946723D01*
X104888571Y-68184819D02*
X104793333Y-68137200D01*
X104793333Y-68137200D02*
X104698095Y-68041961D01*
X104698095Y-68041961D02*
X104650476Y-67851485D01*
X104650476Y-67851485D02*
X104650476Y-67518152D01*
X104650476Y-67518152D02*
X104698095Y-67327676D01*
X104698095Y-67327676D02*
X104793333Y-67232438D01*
X104793333Y-67232438D02*
X104888571Y-67184819D01*
X104888571Y-67184819D02*
X105079047Y-67184819D01*
X105079047Y-67184819D02*
X105174285Y-67232438D01*
X105174285Y-67232438D02*
X105269523Y-67327676D01*
X105269523Y-67327676D02*
X105317142Y-67518152D01*
X105317142Y-67518152D02*
X105317142Y-67851485D01*
X105317142Y-67851485D02*
X105269523Y-68041961D01*
X105269523Y-68041961D02*
X105174285Y-68137200D01*
X105174285Y-68137200D02*
X105079047Y-68184819D01*
X105079047Y-68184819D02*
X104888571Y-68184819D01*
X106269523Y-68184819D02*
X105698095Y-68184819D01*
X105983809Y-68184819D02*
X105983809Y-67184819D01*
X105983809Y-67184819D02*
X105888571Y-67327676D01*
X105888571Y-67327676D02*
X105793333Y-67422914D01*
X105793333Y-67422914D02*
X105698095Y-67470533D01*
X86897644Y-129607200D02*
X87040501Y-129654819D01*
X87040501Y-129654819D02*
X87278596Y-129654819D01*
X87278596Y-129654819D02*
X87373834Y-129607200D01*
X87373834Y-129607200D02*
X87421453Y-129559580D01*
X87421453Y-129559580D02*
X87469072Y-129464342D01*
X87469072Y-129464342D02*
X87469072Y-129369104D01*
X87469072Y-129369104D02*
X87421453Y-129273866D01*
X87421453Y-129273866D02*
X87373834Y-129226247D01*
X87373834Y-129226247D02*
X87278596Y-129178628D01*
X87278596Y-129178628D02*
X87088120Y-129131009D01*
X87088120Y-129131009D02*
X86992882Y-129083390D01*
X86992882Y-129083390D02*
X86945263Y-129035771D01*
X86945263Y-129035771D02*
X86897644Y-128940533D01*
X86897644Y-128940533D02*
X86897644Y-128845295D01*
X86897644Y-128845295D02*
X86945263Y-128750057D01*
X86945263Y-128750057D02*
X86992882Y-128702438D01*
X86992882Y-128702438D02*
X87088120Y-128654819D01*
X87088120Y-128654819D02*
X87326215Y-128654819D01*
X87326215Y-128654819D02*
X87469072Y-128702438D01*
X87802406Y-128654819D02*
X88040501Y-129654819D01*
X88040501Y-129654819D02*
X88230977Y-128940533D01*
X88230977Y-128940533D02*
X88421453Y-129654819D01*
X88421453Y-129654819D02*
X88659549Y-128654819D01*
X89564310Y-129654819D02*
X88992882Y-129654819D01*
X89278596Y-129654819D02*
X89278596Y-128654819D01*
X89278596Y-128654819D02*
X89183358Y-128797676D01*
X89183358Y-128797676D02*
X89088120Y-128892914D01*
X89088120Y-128892914D02*
X88992882Y-128940533D01*
X134028628Y-89976190D02*
X134504819Y-89976190D01*
X133504819Y-90309523D02*
X134028628Y-89976190D01*
X134028628Y-89976190D02*
X133504819Y-89642857D01*
X134504819Y-88785714D02*
X134504819Y-89357142D01*
X134504819Y-89071428D02*
X133504819Y-89071428D01*
X133504819Y-89071428D02*
X133647676Y-89166666D01*
X133647676Y-89166666D02*
X133742914Y-89261904D01*
X133742914Y-89261904D02*
X133790533Y-89357142D01*
X113666667Y-117607200D02*
X113809524Y-117654819D01*
X113809524Y-117654819D02*
X114047619Y-117654819D01*
X114047619Y-117654819D02*
X114142857Y-117607200D01*
X114142857Y-117607200D02*
X114190476Y-117559580D01*
X114190476Y-117559580D02*
X114238095Y-117464342D01*
X114238095Y-117464342D02*
X114238095Y-117369104D01*
X114238095Y-117369104D02*
X114190476Y-117273866D01*
X114190476Y-117273866D02*
X114142857Y-117226247D01*
X114142857Y-117226247D02*
X114047619Y-117178628D01*
X114047619Y-117178628D02*
X113857143Y-117131009D01*
X113857143Y-117131009D02*
X113761905Y-117083390D01*
X113761905Y-117083390D02*
X113714286Y-117035771D01*
X113714286Y-117035771D02*
X113666667Y-116940533D01*
X113666667Y-116940533D02*
X113666667Y-116845295D01*
X113666667Y-116845295D02*
X113714286Y-116750057D01*
X113714286Y-116750057D02*
X113761905Y-116702438D01*
X113761905Y-116702438D02*
X113857143Y-116654819D01*
X113857143Y-116654819D02*
X114095238Y-116654819D01*
X114095238Y-116654819D02*
X114238095Y-116702438D01*
X114571429Y-116654819D02*
X114809524Y-117654819D01*
X114809524Y-117654819D02*
X115000000Y-116940533D01*
X115000000Y-116940533D02*
X115190476Y-117654819D01*
X115190476Y-117654819D02*
X115428572Y-116654819D01*
X115714286Y-116654819D02*
X116333333Y-116654819D01*
X116333333Y-116654819D02*
X116000000Y-117035771D01*
X116000000Y-117035771D02*
X116142857Y-117035771D01*
X116142857Y-117035771D02*
X116238095Y-117083390D01*
X116238095Y-117083390D02*
X116285714Y-117131009D01*
X116285714Y-117131009D02*
X116333333Y-117226247D01*
X116333333Y-117226247D02*
X116333333Y-117464342D01*
X116333333Y-117464342D02*
X116285714Y-117559580D01*
X116285714Y-117559580D02*
X116238095Y-117607200D01*
X116238095Y-117607200D02*
X116142857Y-117654819D01*
X116142857Y-117654819D02*
X115857143Y-117654819D01*
X115857143Y-117654819D02*
X115761905Y-117607200D01*
X115761905Y-117607200D02*
X115714286Y-117559580D01*
X116037427Y-62935868D02*
X116037427Y-63650153D01*
X116037427Y-63650153D02*
X115989808Y-63793010D01*
X115989808Y-63793010D02*
X115894570Y-63888249D01*
X115894570Y-63888249D02*
X115751713Y-63935868D01*
X115751713Y-63935868D02*
X115656475Y-63935868D01*
X116465999Y-63031106D02*
X116513618Y-62983487D01*
X116513618Y-62983487D02*
X116608856Y-62935868D01*
X116608856Y-62935868D02*
X116846951Y-62935868D01*
X116846951Y-62935868D02*
X116942189Y-62983487D01*
X116942189Y-62983487D02*
X116989808Y-63031106D01*
X116989808Y-63031106D02*
X117037427Y-63126344D01*
X117037427Y-63126344D02*
X117037427Y-63221582D01*
X117037427Y-63221582D02*
X116989808Y-63364439D01*
X116989808Y-63364439D02*
X116418380Y-63935868D01*
X116418380Y-63935868D02*
X117037427Y-63935868D01*
X109357142Y-108304819D02*
X109023809Y-107828628D01*
X108785714Y-108304819D02*
X108785714Y-107304819D01*
X108785714Y-107304819D02*
X109166666Y-107304819D01*
X109166666Y-107304819D02*
X109261904Y-107352438D01*
X109261904Y-107352438D02*
X109309523Y-107400057D01*
X109309523Y-107400057D02*
X109357142Y-107495295D01*
X109357142Y-107495295D02*
X109357142Y-107638152D01*
X109357142Y-107638152D02*
X109309523Y-107733390D01*
X109309523Y-107733390D02*
X109261904Y-107781009D01*
X109261904Y-107781009D02*
X109166666Y-107828628D01*
X109166666Y-107828628D02*
X108785714Y-107828628D01*
X110309523Y-108304819D02*
X109738095Y-108304819D01*
X110023809Y-108304819D02*
X110023809Y-107304819D01*
X110023809Y-107304819D02*
X109928571Y-107447676D01*
X109928571Y-107447676D02*
X109833333Y-107542914D01*
X109833333Y-107542914D02*
X109738095Y-107590533D01*
X110928571Y-107304819D02*
X111023809Y-107304819D01*
X111023809Y-107304819D02*
X111119047Y-107352438D01*
X111119047Y-107352438D02*
X111166666Y-107400057D01*
X111166666Y-107400057D02*
X111214285Y-107495295D01*
X111214285Y-107495295D02*
X111261904Y-107685771D01*
X111261904Y-107685771D02*
X111261904Y-107923866D01*
X111261904Y-107923866D02*
X111214285Y-108114342D01*
X111214285Y-108114342D02*
X111166666Y-108209580D01*
X111166666Y-108209580D02*
X111119047Y-108257200D01*
X111119047Y-108257200D02*
X111023809Y-108304819D01*
X111023809Y-108304819D02*
X110928571Y-108304819D01*
X110928571Y-108304819D02*
X110833333Y-108257200D01*
X110833333Y-108257200D02*
X110785714Y-108209580D01*
X110785714Y-108209580D02*
X110738095Y-108114342D01*
X110738095Y-108114342D02*
X110690476Y-107923866D01*
X110690476Y-107923866D02*
X110690476Y-107685771D01*
X110690476Y-107685771D02*
X110738095Y-107495295D01*
X110738095Y-107495295D02*
X110785714Y-107400057D01*
X110785714Y-107400057D02*
X110833333Y-107352438D01*
X110833333Y-107352438D02*
X110928571Y-107304819D01*
X123804819Y-123642857D02*
X123328628Y-123976190D01*
X123804819Y-124214285D02*
X122804819Y-124214285D01*
X122804819Y-124214285D02*
X122804819Y-123833333D01*
X122804819Y-123833333D02*
X122852438Y-123738095D01*
X122852438Y-123738095D02*
X122900057Y-123690476D01*
X122900057Y-123690476D02*
X122995295Y-123642857D01*
X122995295Y-123642857D02*
X123138152Y-123642857D01*
X123138152Y-123642857D02*
X123233390Y-123690476D01*
X123233390Y-123690476D02*
X123281009Y-123738095D01*
X123281009Y-123738095D02*
X123328628Y-123833333D01*
X123328628Y-123833333D02*
X123328628Y-124214285D01*
X123804819Y-122690476D02*
X123804819Y-123261904D01*
X123804819Y-122976190D02*
X122804819Y-122976190D01*
X122804819Y-122976190D02*
X122947676Y-123071428D01*
X122947676Y-123071428D02*
X123042914Y-123166666D01*
X123042914Y-123166666D02*
X123090533Y-123261904D01*
X122804819Y-122357142D02*
X122804819Y-121738095D01*
X122804819Y-121738095D02*
X123185771Y-122071428D01*
X123185771Y-122071428D02*
X123185771Y-121928571D01*
X123185771Y-121928571D02*
X123233390Y-121833333D01*
X123233390Y-121833333D02*
X123281009Y-121785714D01*
X123281009Y-121785714D02*
X123376247Y-121738095D01*
X123376247Y-121738095D02*
X123614342Y-121738095D01*
X123614342Y-121738095D02*
X123709580Y-121785714D01*
X123709580Y-121785714D02*
X123757200Y-121833333D01*
X123757200Y-121833333D02*
X123804819Y-121928571D01*
X123804819Y-121928571D02*
X123804819Y-122214285D01*
X123804819Y-122214285D02*
X123757200Y-122309523D01*
X123757200Y-122309523D02*
X123709580Y-122357142D01*
X129357142Y-103104819D02*
X129023809Y-102628628D01*
X128785714Y-103104819D02*
X128785714Y-102104819D01*
X128785714Y-102104819D02*
X129166666Y-102104819D01*
X129166666Y-102104819D02*
X129261904Y-102152438D01*
X129261904Y-102152438D02*
X129309523Y-102200057D01*
X129309523Y-102200057D02*
X129357142Y-102295295D01*
X129357142Y-102295295D02*
X129357142Y-102438152D01*
X129357142Y-102438152D02*
X129309523Y-102533390D01*
X129309523Y-102533390D02*
X129261904Y-102581009D01*
X129261904Y-102581009D02*
X129166666Y-102628628D01*
X129166666Y-102628628D02*
X128785714Y-102628628D01*
X130309523Y-103104819D02*
X129738095Y-103104819D01*
X130023809Y-103104819D02*
X130023809Y-102104819D01*
X130023809Y-102104819D02*
X129928571Y-102247676D01*
X129928571Y-102247676D02*
X129833333Y-102342914D01*
X129833333Y-102342914D02*
X129738095Y-102390533D01*
X130880952Y-102533390D02*
X130785714Y-102485771D01*
X130785714Y-102485771D02*
X130738095Y-102438152D01*
X130738095Y-102438152D02*
X130690476Y-102342914D01*
X130690476Y-102342914D02*
X130690476Y-102295295D01*
X130690476Y-102295295D02*
X130738095Y-102200057D01*
X130738095Y-102200057D02*
X130785714Y-102152438D01*
X130785714Y-102152438D02*
X130880952Y-102104819D01*
X130880952Y-102104819D02*
X131071428Y-102104819D01*
X131071428Y-102104819D02*
X131166666Y-102152438D01*
X131166666Y-102152438D02*
X131214285Y-102200057D01*
X131214285Y-102200057D02*
X131261904Y-102295295D01*
X131261904Y-102295295D02*
X131261904Y-102342914D01*
X131261904Y-102342914D02*
X131214285Y-102438152D01*
X131214285Y-102438152D02*
X131166666Y-102485771D01*
X131166666Y-102485771D02*
X131071428Y-102533390D01*
X131071428Y-102533390D02*
X130880952Y-102533390D01*
X130880952Y-102533390D02*
X130785714Y-102581009D01*
X130785714Y-102581009D02*
X130738095Y-102628628D01*
X130738095Y-102628628D02*
X130690476Y-102723866D01*
X130690476Y-102723866D02*
X130690476Y-102914342D01*
X130690476Y-102914342D02*
X130738095Y-103009580D01*
X130738095Y-103009580D02*
X130785714Y-103057200D01*
X130785714Y-103057200D02*
X130880952Y-103104819D01*
X130880952Y-103104819D02*
X131071428Y-103104819D01*
X131071428Y-103104819D02*
X131166666Y-103057200D01*
X131166666Y-103057200D02*
X131214285Y-103009580D01*
X131214285Y-103009580D02*
X131261904Y-102914342D01*
X131261904Y-102914342D02*
X131261904Y-102723866D01*
X131261904Y-102723866D02*
X131214285Y-102628628D01*
X131214285Y-102628628D02*
X131166666Y-102581009D01*
X131166666Y-102581009D02*
X131071428Y-102533390D01*
X120804819Y-123166666D02*
X120328628Y-123499999D01*
X120804819Y-123738094D02*
X119804819Y-123738094D01*
X119804819Y-123738094D02*
X119804819Y-123357142D01*
X119804819Y-123357142D02*
X119852438Y-123261904D01*
X119852438Y-123261904D02*
X119900057Y-123214285D01*
X119900057Y-123214285D02*
X119995295Y-123166666D01*
X119995295Y-123166666D02*
X120138152Y-123166666D01*
X120138152Y-123166666D02*
X120233390Y-123214285D01*
X120233390Y-123214285D02*
X120281009Y-123261904D01*
X120281009Y-123261904D02*
X120328628Y-123357142D01*
X120328628Y-123357142D02*
X120328628Y-123738094D01*
X119900057Y-122785713D02*
X119852438Y-122738094D01*
X119852438Y-122738094D02*
X119804819Y-122642856D01*
X119804819Y-122642856D02*
X119804819Y-122404761D01*
X119804819Y-122404761D02*
X119852438Y-122309523D01*
X119852438Y-122309523D02*
X119900057Y-122261904D01*
X119900057Y-122261904D02*
X119995295Y-122214285D01*
X119995295Y-122214285D02*
X120090533Y-122214285D01*
X120090533Y-122214285D02*
X120233390Y-122261904D01*
X120233390Y-122261904D02*
X120804819Y-122833332D01*
X120804819Y-122833332D02*
X120804819Y-122214285D01*
X89878221Y-81609580D02*
X89830602Y-81657200D01*
X89830602Y-81657200D02*
X89687745Y-81704819D01*
X89687745Y-81704819D02*
X89592507Y-81704819D01*
X89592507Y-81704819D02*
X89449650Y-81657200D01*
X89449650Y-81657200D02*
X89354412Y-81561961D01*
X89354412Y-81561961D02*
X89306793Y-81466723D01*
X89306793Y-81466723D02*
X89259174Y-81276247D01*
X89259174Y-81276247D02*
X89259174Y-81133390D01*
X89259174Y-81133390D02*
X89306793Y-80942914D01*
X89306793Y-80942914D02*
X89354412Y-80847676D01*
X89354412Y-80847676D02*
X89449650Y-80752438D01*
X89449650Y-80752438D02*
X89592507Y-80704819D01*
X89592507Y-80704819D02*
X89687745Y-80704819D01*
X89687745Y-80704819D02*
X89830602Y-80752438D01*
X89830602Y-80752438D02*
X89878221Y-80800057D01*
X90211555Y-80704819D02*
X90878221Y-80704819D01*
X90878221Y-80704819D02*
X90449650Y-81704819D01*
X130209580Y-123166666D02*
X130257200Y-123214285D01*
X130257200Y-123214285D02*
X130304819Y-123357142D01*
X130304819Y-123357142D02*
X130304819Y-123452380D01*
X130304819Y-123452380D02*
X130257200Y-123595237D01*
X130257200Y-123595237D02*
X130161961Y-123690475D01*
X130161961Y-123690475D02*
X130066723Y-123738094D01*
X130066723Y-123738094D02*
X129876247Y-123785713D01*
X129876247Y-123785713D02*
X129733390Y-123785713D01*
X129733390Y-123785713D02*
X129542914Y-123738094D01*
X129542914Y-123738094D02*
X129447676Y-123690475D01*
X129447676Y-123690475D02*
X129352438Y-123595237D01*
X129352438Y-123595237D02*
X129304819Y-123452380D01*
X129304819Y-123452380D02*
X129304819Y-123357142D01*
X129304819Y-123357142D02*
X129352438Y-123214285D01*
X129352438Y-123214285D02*
X129400057Y-123166666D01*
X129304819Y-122309523D02*
X129304819Y-122499999D01*
X129304819Y-122499999D02*
X129352438Y-122595237D01*
X129352438Y-122595237D02*
X129400057Y-122642856D01*
X129400057Y-122642856D02*
X129542914Y-122738094D01*
X129542914Y-122738094D02*
X129733390Y-122785713D01*
X129733390Y-122785713D02*
X130114342Y-122785713D01*
X130114342Y-122785713D02*
X130209580Y-122738094D01*
X130209580Y-122738094D02*
X130257200Y-122690475D01*
X130257200Y-122690475D02*
X130304819Y-122595237D01*
X130304819Y-122595237D02*
X130304819Y-122404761D01*
X130304819Y-122404761D02*
X130257200Y-122309523D01*
X130257200Y-122309523D02*
X130209580Y-122261904D01*
X130209580Y-122261904D02*
X130114342Y-122214285D01*
X130114342Y-122214285D02*
X129876247Y-122214285D01*
X129876247Y-122214285D02*
X129781009Y-122261904D01*
X129781009Y-122261904D02*
X129733390Y-122309523D01*
X129733390Y-122309523D02*
X129685771Y-122404761D01*
X129685771Y-122404761D02*
X129685771Y-122595237D01*
X129685771Y-122595237D02*
X129733390Y-122690475D01*
X129733390Y-122690475D02*
X129781009Y-122738094D01*
X129781009Y-122738094D02*
X129876247Y-122785713D01*
X109833333Y-102304819D02*
X109500000Y-101828628D01*
X109261905Y-102304819D02*
X109261905Y-101304819D01*
X109261905Y-101304819D02*
X109642857Y-101304819D01*
X109642857Y-101304819D02*
X109738095Y-101352438D01*
X109738095Y-101352438D02*
X109785714Y-101400057D01*
X109785714Y-101400057D02*
X109833333Y-101495295D01*
X109833333Y-101495295D02*
X109833333Y-101638152D01*
X109833333Y-101638152D02*
X109785714Y-101733390D01*
X109785714Y-101733390D02*
X109738095Y-101781009D01*
X109738095Y-101781009D02*
X109642857Y-101828628D01*
X109642857Y-101828628D02*
X109261905Y-101828628D01*
X110404762Y-101733390D02*
X110309524Y-101685771D01*
X110309524Y-101685771D02*
X110261905Y-101638152D01*
X110261905Y-101638152D02*
X110214286Y-101542914D01*
X110214286Y-101542914D02*
X110214286Y-101495295D01*
X110214286Y-101495295D02*
X110261905Y-101400057D01*
X110261905Y-101400057D02*
X110309524Y-101352438D01*
X110309524Y-101352438D02*
X110404762Y-101304819D01*
X110404762Y-101304819D02*
X110595238Y-101304819D01*
X110595238Y-101304819D02*
X110690476Y-101352438D01*
X110690476Y-101352438D02*
X110738095Y-101400057D01*
X110738095Y-101400057D02*
X110785714Y-101495295D01*
X110785714Y-101495295D02*
X110785714Y-101542914D01*
X110785714Y-101542914D02*
X110738095Y-101638152D01*
X110738095Y-101638152D02*
X110690476Y-101685771D01*
X110690476Y-101685771D02*
X110595238Y-101733390D01*
X110595238Y-101733390D02*
X110404762Y-101733390D01*
X110404762Y-101733390D02*
X110309524Y-101781009D01*
X110309524Y-101781009D02*
X110261905Y-101828628D01*
X110261905Y-101828628D02*
X110214286Y-101923866D01*
X110214286Y-101923866D02*
X110214286Y-102114342D01*
X110214286Y-102114342D02*
X110261905Y-102209580D01*
X110261905Y-102209580D02*
X110309524Y-102257200D01*
X110309524Y-102257200D02*
X110404762Y-102304819D01*
X110404762Y-102304819D02*
X110595238Y-102304819D01*
X110595238Y-102304819D02*
X110690476Y-102257200D01*
X110690476Y-102257200D02*
X110738095Y-102209580D01*
X110738095Y-102209580D02*
X110785714Y-102114342D01*
X110785714Y-102114342D02*
X110785714Y-101923866D01*
X110785714Y-101923866D02*
X110738095Y-101828628D01*
X110738095Y-101828628D02*
X110690476Y-101781009D01*
X110690476Y-101781009D02*
X110595238Y-101733390D01*
X119548095Y-112984819D02*
X119548095Y-113794342D01*
X119548095Y-113794342D02*
X119595714Y-113889580D01*
X119595714Y-113889580D02*
X119643333Y-113937200D01*
X119643333Y-113937200D02*
X119738571Y-113984819D01*
X119738571Y-113984819D02*
X119929047Y-113984819D01*
X119929047Y-113984819D02*
X120024285Y-113937200D01*
X120024285Y-113937200D02*
X120071904Y-113889580D01*
X120071904Y-113889580D02*
X120119523Y-113794342D01*
X120119523Y-113794342D02*
X120119523Y-112984819D01*
X120548095Y-113080057D02*
X120595714Y-113032438D01*
X120595714Y-113032438D02*
X120690952Y-112984819D01*
X120690952Y-112984819D02*
X120929047Y-112984819D01*
X120929047Y-112984819D02*
X121024285Y-113032438D01*
X121024285Y-113032438D02*
X121071904Y-113080057D01*
X121071904Y-113080057D02*
X121119523Y-113175295D01*
X121119523Y-113175295D02*
X121119523Y-113270533D01*
X121119523Y-113270533D02*
X121071904Y-113413390D01*
X121071904Y-113413390D02*
X120500476Y-113984819D01*
X120500476Y-113984819D02*
X121119523Y-113984819D01*
X92833333Y-111104819D02*
X92500000Y-110628628D01*
X92261905Y-111104819D02*
X92261905Y-110104819D01*
X92261905Y-110104819D02*
X92642857Y-110104819D01*
X92642857Y-110104819D02*
X92738095Y-110152438D01*
X92738095Y-110152438D02*
X92785714Y-110200057D01*
X92785714Y-110200057D02*
X92833333Y-110295295D01*
X92833333Y-110295295D02*
X92833333Y-110438152D01*
X92833333Y-110438152D02*
X92785714Y-110533390D01*
X92785714Y-110533390D02*
X92738095Y-110581009D01*
X92738095Y-110581009D02*
X92642857Y-110628628D01*
X92642857Y-110628628D02*
X92261905Y-110628628D01*
X93785714Y-111104819D02*
X93214286Y-111104819D01*
X93500000Y-111104819D02*
X93500000Y-110104819D01*
X93500000Y-110104819D02*
X93404762Y-110247676D01*
X93404762Y-110247676D02*
X93309524Y-110342914D01*
X93309524Y-110342914D02*
X93214286Y-110390533D01*
X127364761Y-68280057D02*
X127269523Y-68232438D01*
X127269523Y-68232438D02*
X127174285Y-68137200D01*
X127174285Y-68137200D02*
X127031428Y-67994342D01*
X127031428Y-67994342D02*
X126936190Y-67946723D01*
X126936190Y-67946723D02*
X126840952Y-67946723D01*
X126888571Y-68184819D02*
X126793333Y-68137200D01*
X126793333Y-68137200D02*
X126698095Y-68041961D01*
X126698095Y-68041961D02*
X126650476Y-67851485D01*
X126650476Y-67851485D02*
X126650476Y-67518152D01*
X126650476Y-67518152D02*
X126698095Y-67327676D01*
X126698095Y-67327676D02*
X126793333Y-67232438D01*
X126793333Y-67232438D02*
X126888571Y-67184819D01*
X126888571Y-67184819D02*
X127079047Y-67184819D01*
X127079047Y-67184819D02*
X127174285Y-67232438D01*
X127174285Y-67232438D02*
X127269523Y-67327676D01*
X127269523Y-67327676D02*
X127317142Y-67518152D01*
X127317142Y-67518152D02*
X127317142Y-67851485D01*
X127317142Y-67851485D02*
X127269523Y-68041961D01*
X127269523Y-68041961D02*
X127174285Y-68137200D01*
X127174285Y-68137200D02*
X127079047Y-68184819D01*
X127079047Y-68184819D02*
X126888571Y-68184819D01*
X127650476Y-67184819D02*
X128269523Y-67184819D01*
X128269523Y-67184819D02*
X127936190Y-67565771D01*
X127936190Y-67565771D02*
X128079047Y-67565771D01*
X128079047Y-67565771D02*
X128174285Y-67613390D01*
X128174285Y-67613390D02*
X128221904Y-67661009D01*
X128221904Y-67661009D02*
X128269523Y-67756247D01*
X128269523Y-67756247D02*
X128269523Y-67994342D01*
X128269523Y-67994342D02*
X128221904Y-68089580D01*
X128221904Y-68089580D02*
X128174285Y-68137200D01*
X128174285Y-68137200D02*
X128079047Y-68184819D01*
X128079047Y-68184819D02*
X127793333Y-68184819D01*
X127793333Y-68184819D02*
X127698095Y-68137200D01*
X127698095Y-68137200D02*
X127650476Y-68089580D01*
X92357142Y-104804819D02*
X92023809Y-104328628D01*
X91785714Y-104804819D02*
X91785714Y-103804819D01*
X91785714Y-103804819D02*
X92166666Y-103804819D01*
X92166666Y-103804819D02*
X92261904Y-103852438D01*
X92261904Y-103852438D02*
X92309523Y-103900057D01*
X92309523Y-103900057D02*
X92357142Y-103995295D01*
X92357142Y-103995295D02*
X92357142Y-104138152D01*
X92357142Y-104138152D02*
X92309523Y-104233390D01*
X92309523Y-104233390D02*
X92261904Y-104281009D01*
X92261904Y-104281009D02*
X92166666Y-104328628D01*
X92166666Y-104328628D02*
X91785714Y-104328628D01*
X93309523Y-104804819D02*
X92738095Y-104804819D01*
X93023809Y-104804819D02*
X93023809Y-103804819D01*
X93023809Y-103804819D02*
X92928571Y-103947676D01*
X92928571Y-103947676D02*
X92833333Y-104042914D01*
X92833333Y-104042914D02*
X92738095Y-104090533D01*
X93690476Y-103900057D02*
X93738095Y-103852438D01*
X93738095Y-103852438D02*
X93833333Y-103804819D01*
X93833333Y-103804819D02*
X94071428Y-103804819D01*
X94071428Y-103804819D02*
X94166666Y-103852438D01*
X94166666Y-103852438D02*
X94214285Y-103900057D01*
X94214285Y-103900057D02*
X94261904Y-103995295D01*
X94261904Y-103995295D02*
X94261904Y-104090533D01*
X94261904Y-104090533D02*
X94214285Y-104233390D01*
X94214285Y-104233390D02*
X93642857Y-104804819D01*
X93642857Y-104804819D02*
X94261904Y-104804819D01*
X109357142Y-111304819D02*
X109023809Y-110828628D01*
X108785714Y-111304819D02*
X108785714Y-110304819D01*
X108785714Y-110304819D02*
X109166666Y-110304819D01*
X109166666Y-110304819D02*
X109261904Y-110352438D01*
X109261904Y-110352438D02*
X109309523Y-110400057D01*
X109309523Y-110400057D02*
X109357142Y-110495295D01*
X109357142Y-110495295D02*
X109357142Y-110638152D01*
X109357142Y-110638152D02*
X109309523Y-110733390D01*
X109309523Y-110733390D02*
X109261904Y-110781009D01*
X109261904Y-110781009D02*
X109166666Y-110828628D01*
X109166666Y-110828628D02*
X108785714Y-110828628D01*
X110309523Y-111304819D02*
X109738095Y-111304819D01*
X110023809Y-111304819D02*
X110023809Y-110304819D01*
X110023809Y-110304819D02*
X109928571Y-110447676D01*
X109928571Y-110447676D02*
X109833333Y-110542914D01*
X109833333Y-110542914D02*
X109738095Y-110590533D01*
X111261904Y-111304819D02*
X110690476Y-111304819D01*
X110976190Y-111304819D02*
X110976190Y-110304819D01*
X110976190Y-110304819D02*
X110880952Y-110447676D01*
X110880952Y-110447676D02*
X110785714Y-110542914D01*
X110785714Y-110542914D02*
X110690476Y-110590533D01*
X82833333Y-74209580D02*
X82785714Y-74257200D01*
X82785714Y-74257200D02*
X82642857Y-74304819D01*
X82642857Y-74304819D02*
X82547619Y-74304819D01*
X82547619Y-74304819D02*
X82404762Y-74257200D01*
X82404762Y-74257200D02*
X82309524Y-74161961D01*
X82309524Y-74161961D02*
X82261905Y-74066723D01*
X82261905Y-74066723D02*
X82214286Y-73876247D01*
X82214286Y-73876247D02*
X82214286Y-73733390D01*
X82214286Y-73733390D02*
X82261905Y-73542914D01*
X82261905Y-73542914D02*
X82309524Y-73447676D01*
X82309524Y-73447676D02*
X82404762Y-73352438D01*
X82404762Y-73352438D02*
X82547619Y-73304819D01*
X82547619Y-73304819D02*
X82642857Y-73304819D01*
X82642857Y-73304819D02*
X82785714Y-73352438D01*
X82785714Y-73352438D02*
X82833333Y-73400057D01*
X83785714Y-74304819D02*
X83214286Y-74304819D01*
X83500000Y-74304819D02*
X83500000Y-73304819D01*
X83500000Y-73304819D02*
X83404762Y-73447676D01*
X83404762Y-73447676D02*
X83309524Y-73542914D01*
X83309524Y-73542914D02*
X83214286Y-73590533D01*
X109833333Y-96304819D02*
X109500000Y-95828628D01*
X109261905Y-96304819D02*
X109261905Y-95304819D01*
X109261905Y-95304819D02*
X109642857Y-95304819D01*
X109642857Y-95304819D02*
X109738095Y-95352438D01*
X109738095Y-95352438D02*
X109785714Y-95400057D01*
X109785714Y-95400057D02*
X109833333Y-95495295D01*
X109833333Y-95495295D02*
X109833333Y-95638152D01*
X109833333Y-95638152D02*
X109785714Y-95733390D01*
X109785714Y-95733390D02*
X109738095Y-95781009D01*
X109738095Y-95781009D02*
X109642857Y-95828628D01*
X109642857Y-95828628D02*
X109261905Y-95828628D01*
X110690476Y-95304819D02*
X110500000Y-95304819D01*
X110500000Y-95304819D02*
X110404762Y-95352438D01*
X110404762Y-95352438D02*
X110357143Y-95400057D01*
X110357143Y-95400057D02*
X110261905Y-95542914D01*
X110261905Y-95542914D02*
X110214286Y-95733390D01*
X110214286Y-95733390D02*
X110214286Y-96114342D01*
X110214286Y-96114342D02*
X110261905Y-96209580D01*
X110261905Y-96209580D02*
X110309524Y-96257200D01*
X110309524Y-96257200D02*
X110404762Y-96304819D01*
X110404762Y-96304819D02*
X110595238Y-96304819D01*
X110595238Y-96304819D02*
X110690476Y-96257200D01*
X110690476Y-96257200D02*
X110738095Y-96209580D01*
X110738095Y-96209580D02*
X110785714Y-96114342D01*
X110785714Y-96114342D02*
X110785714Y-95876247D01*
X110785714Y-95876247D02*
X110738095Y-95781009D01*
X110738095Y-95781009D02*
X110690476Y-95733390D01*
X110690476Y-95733390D02*
X110595238Y-95685771D01*
X110595238Y-95685771D02*
X110404762Y-95685771D01*
X110404762Y-95685771D02*
X110309524Y-95733390D01*
X110309524Y-95733390D02*
X110261905Y-95781009D01*
X110261905Y-95781009D02*
X110214286Y-95876247D01*
X109833333Y-113804819D02*
X109500000Y-113328628D01*
X109261905Y-113804819D02*
X109261905Y-112804819D01*
X109261905Y-112804819D02*
X109642857Y-112804819D01*
X109642857Y-112804819D02*
X109738095Y-112852438D01*
X109738095Y-112852438D02*
X109785714Y-112900057D01*
X109785714Y-112900057D02*
X109833333Y-112995295D01*
X109833333Y-112995295D02*
X109833333Y-113138152D01*
X109833333Y-113138152D02*
X109785714Y-113233390D01*
X109785714Y-113233390D02*
X109738095Y-113281009D01*
X109738095Y-113281009D02*
X109642857Y-113328628D01*
X109642857Y-113328628D02*
X109261905Y-113328628D01*
X110690476Y-113138152D02*
X110690476Y-113804819D01*
X110452381Y-112757200D02*
X110214286Y-113471485D01*
X110214286Y-113471485D02*
X110833333Y-113471485D01*
X92278095Y-69234819D02*
X92278095Y-70044342D01*
X92278095Y-70044342D02*
X92325714Y-70139580D01*
X92325714Y-70139580D02*
X92373333Y-70187200D01*
X92373333Y-70187200D02*
X92468571Y-70234819D01*
X92468571Y-70234819D02*
X92659047Y-70234819D01*
X92659047Y-70234819D02*
X92754285Y-70187200D01*
X92754285Y-70187200D02*
X92801904Y-70139580D01*
X92801904Y-70139580D02*
X92849523Y-70044342D01*
X92849523Y-70044342D02*
X92849523Y-69234819D01*
X93849523Y-70234819D02*
X93278095Y-70234819D01*
X93563809Y-70234819D02*
X93563809Y-69234819D01*
X93563809Y-69234819D02*
X93468571Y-69377676D01*
X93468571Y-69377676D02*
X93373333Y-69472914D01*
X93373333Y-69472914D02*
X93278095Y-69520533D01*
X109833333Y-105304819D02*
X109500000Y-104828628D01*
X109261905Y-105304819D02*
X109261905Y-104304819D01*
X109261905Y-104304819D02*
X109642857Y-104304819D01*
X109642857Y-104304819D02*
X109738095Y-104352438D01*
X109738095Y-104352438D02*
X109785714Y-104400057D01*
X109785714Y-104400057D02*
X109833333Y-104495295D01*
X109833333Y-104495295D02*
X109833333Y-104638152D01*
X109833333Y-104638152D02*
X109785714Y-104733390D01*
X109785714Y-104733390D02*
X109738095Y-104781009D01*
X109738095Y-104781009D02*
X109642857Y-104828628D01*
X109642857Y-104828628D02*
X109261905Y-104828628D01*
X110309524Y-105304819D02*
X110500000Y-105304819D01*
X110500000Y-105304819D02*
X110595238Y-105257200D01*
X110595238Y-105257200D02*
X110642857Y-105209580D01*
X110642857Y-105209580D02*
X110738095Y-105066723D01*
X110738095Y-105066723D02*
X110785714Y-104876247D01*
X110785714Y-104876247D02*
X110785714Y-104495295D01*
X110785714Y-104495295D02*
X110738095Y-104400057D01*
X110738095Y-104400057D02*
X110690476Y-104352438D01*
X110690476Y-104352438D02*
X110595238Y-104304819D01*
X110595238Y-104304819D02*
X110404762Y-104304819D01*
X110404762Y-104304819D02*
X110309524Y-104352438D01*
X110309524Y-104352438D02*
X110261905Y-104400057D01*
X110261905Y-104400057D02*
X110214286Y-104495295D01*
X110214286Y-104495295D02*
X110214286Y-104733390D01*
X110214286Y-104733390D02*
X110261905Y-104828628D01*
X110261905Y-104828628D02*
X110309524Y-104876247D01*
X110309524Y-104876247D02*
X110404762Y-104923866D01*
X110404762Y-104923866D02*
X110595238Y-104923866D01*
X110595238Y-104923866D02*
X110690476Y-104876247D01*
X110690476Y-104876247D02*
X110738095Y-104828628D01*
X110738095Y-104828628D02*
X110785714Y-104733390D01*
X80583333Y-69109580D02*
X80535714Y-69157200D01*
X80535714Y-69157200D02*
X80392857Y-69204819D01*
X80392857Y-69204819D02*
X80297619Y-69204819D01*
X80297619Y-69204819D02*
X80154762Y-69157200D01*
X80154762Y-69157200D02*
X80059524Y-69061961D01*
X80059524Y-69061961D02*
X80011905Y-68966723D01*
X80011905Y-68966723D02*
X79964286Y-68776247D01*
X79964286Y-68776247D02*
X79964286Y-68633390D01*
X79964286Y-68633390D02*
X80011905Y-68442914D01*
X80011905Y-68442914D02*
X80059524Y-68347676D01*
X80059524Y-68347676D02*
X80154762Y-68252438D01*
X80154762Y-68252438D02*
X80297619Y-68204819D01*
X80297619Y-68204819D02*
X80392857Y-68204819D01*
X80392857Y-68204819D02*
X80535714Y-68252438D01*
X80535714Y-68252438D02*
X80583333Y-68300057D01*
X80916667Y-68204819D02*
X81535714Y-68204819D01*
X81535714Y-68204819D02*
X81202381Y-68585771D01*
X81202381Y-68585771D02*
X81345238Y-68585771D01*
X81345238Y-68585771D02*
X81440476Y-68633390D01*
X81440476Y-68633390D02*
X81488095Y-68681009D01*
X81488095Y-68681009D02*
X81535714Y-68776247D01*
X81535714Y-68776247D02*
X81535714Y-69014342D01*
X81535714Y-69014342D02*
X81488095Y-69109580D01*
X81488095Y-69109580D02*
X81440476Y-69157200D01*
X81440476Y-69157200D02*
X81345238Y-69204819D01*
X81345238Y-69204819D02*
X81059524Y-69204819D01*
X81059524Y-69204819D02*
X80964286Y-69157200D01*
X80964286Y-69157200D02*
X80916667Y-69109580D01*
X133509580Y-87166666D02*
X133557200Y-87214285D01*
X133557200Y-87214285D02*
X133604819Y-87357142D01*
X133604819Y-87357142D02*
X133604819Y-87452380D01*
X133604819Y-87452380D02*
X133557200Y-87595237D01*
X133557200Y-87595237D02*
X133461961Y-87690475D01*
X133461961Y-87690475D02*
X133366723Y-87738094D01*
X133366723Y-87738094D02*
X133176247Y-87785713D01*
X133176247Y-87785713D02*
X133033390Y-87785713D01*
X133033390Y-87785713D02*
X132842914Y-87738094D01*
X132842914Y-87738094D02*
X132747676Y-87690475D01*
X132747676Y-87690475D02*
X132652438Y-87595237D01*
X132652438Y-87595237D02*
X132604819Y-87452380D01*
X132604819Y-87452380D02*
X132604819Y-87357142D01*
X132604819Y-87357142D02*
X132652438Y-87214285D01*
X132652438Y-87214285D02*
X132700057Y-87166666D01*
X132604819Y-86261904D02*
X132604819Y-86738094D01*
X132604819Y-86738094D02*
X133081009Y-86785713D01*
X133081009Y-86785713D02*
X133033390Y-86738094D01*
X133033390Y-86738094D02*
X132985771Y-86642856D01*
X132985771Y-86642856D02*
X132985771Y-86404761D01*
X132985771Y-86404761D02*
X133033390Y-86309523D01*
X133033390Y-86309523D02*
X133081009Y-86261904D01*
X133081009Y-86261904D02*
X133176247Y-86214285D01*
X133176247Y-86214285D02*
X133414342Y-86214285D01*
X133414342Y-86214285D02*
X133509580Y-86261904D01*
X133509580Y-86261904D02*
X133557200Y-86309523D01*
X133557200Y-86309523D02*
X133604819Y-86404761D01*
X133604819Y-86404761D02*
X133604819Y-86642856D01*
X133604819Y-86642856D02*
X133557200Y-86738094D01*
X133557200Y-86738094D02*
X133509580Y-86785713D01*
X107298095Y-128129819D02*
X107298095Y-128939342D01*
X107298095Y-128939342D02*
X107345714Y-129034580D01*
X107345714Y-129034580D02*
X107393333Y-129082200D01*
X107393333Y-129082200D02*
X107488571Y-129129819D01*
X107488571Y-129129819D02*
X107679047Y-129129819D01*
X107679047Y-129129819D02*
X107774285Y-129082200D01*
X107774285Y-129082200D02*
X107821904Y-129034580D01*
X107821904Y-129034580D02*
X107869523Y-128939342D01*
X107869523Y-128939342D02*
X107869523Y-128129819D01*
X108821904Y-128129819D02*
X108345714Y-128129819D01*
X108345714Y-128129819D02*
X108298095Y-128606009D01*
X108298095Y-128606009D02*
X108345714Y-128558390D01*
X108345714Y-128558390D02*
X108440952Y-128510771D01*
X108440952Y-128510771D02*
X108679047Y-128510771D01*
X108679047Y-128510771D02*
X108774285Y-128558390D01*
X108774285Y-128558390D02*
X108821904Y-128606009D01*
X108821904Y-128606009D02*
X108869523Y-128701247D01*
X108869523Y-128701247D02*
X108869523Y-128939342D01*
X108869523Y-128939342D02*
X108821904Y-129034580D01*
X108821904Y-129034580D02*
X108774285Y-129082200D01*
X108774285Y-129082200D02*
X108679047Y-129129819D01*
X108679047Y-129129819D02*
X108440952Y-129129819D01*
X108440952Y-129129819D02*
X108345714Y-129082200D01*
X108345714Y-129082200D02*
X108298095Y-129034580D01*
X129357142Y-97276375D02*
X129023809Y-96800184D01*
X128785714Y-97276375D02*
X128785714Y-96276375D01*
X128785714Y-96276375D02*
X129166666Y-96276375D01*
X129166666Y-96276375D02*
X129261904Y-96323994D01*
X129261904Y-96323994D02*
X129309523Y-96371613D01*
X129309523Y-96371613D02*
X129357142Y-96466851D01*
X129357142Y-96466851D02*
X129357142Y-96609708D01*
X129357142Y-96609708D02*
X129309523Y-96704946D01*
X129309523Y-96704946D02*
X129261904Y-96752565D01*
X129261904Y-96752565D02*
X129166666Y-96800184D01*
X129166666Y-96800184D02*
X128785714Y-96800184D01*
X130309523Y-97276375D02*
X129738095Y-97276375D01*
X130023809Y-97276375D02*
X130023809Y-96276375D01*
X130023809Y-96276375D02*
X129928571Y-96419232D01*
X129928571Y-96419232D02*
X129833333Y-96514470D01*
X129833333Y-96514470D02*
X129738095Y-96562089D01*
X130642857Y-96276375D02*
X131309523Y-96276375D01*
X131309523Y-96276375D02*
X130880952Y-97276375D01*
X91126666Y-69459819D02*
X91126666Y-70174104D01*
X91126666Y-70174104D02*
X91079047Y-70316961D01*
X91079047Y-70316961D02*
X90983809Y-70412200D01*
X90983809Y-70412200D02*
X90840952Y-70459819D01*
X90840952Y-70459819D02*
X90745714Y-70459819D01*
X92126666Y-70459819D02*
X91555238Y-70459819D01*
X91840952Y-70459819D02*
X91840952Y-69459819D01*
X91840952Y-69459819D02*
X91745714Y-69602676D01*
X91745714Y-69602676D02*
X91650476Y-69697914D01*
X91650476Y-69697914D02*
X91555238Y-69745533D01*
X89833333Y-80359580D02*
X89785714Y-80407200D01*
X89785714Y-80407200D02*
X89642857Y-80454819D01*
X89642857Y-80454819D02*
X89547619Y-80454819D01*
X89547619Y-80454819D02*
X89404762Y-80407200D01*
X89404762Y-80407200D02*
X89309524Y-80311961D01*
X89309524Y-80311961D02*
X89261905Y-80216723D01*
X89261905Y-80216723D02*
X89214286Y-80026247D01*
X89214286Y-80026247D02*
X89214286Y-79883390D01*
X89214286Y-79883390D02*
X89261905Y-79692914D01*
X89261905Y-79692914D02*
X89309524Y-79597676D01*
X89309524Y-79597676D02*
X89404762Y-79502438D01*
X89404762Y-79502438D02*
X89547619Y-79454819D01*
X89547619Y-79454819D02*
X89642857Y-79454819D01*
X89642857Y-79454819D02*
X89785714Y-79502438D01*
X89785714Y-79502438D02*
X89833333Y-79550057D01*
X90214286Y-79550057D02*
X90261905Y-79502438D01*
X90261905Y-79502438D02*
X90357143Y-79454819D01*
X90357143Y-79454819D02*
X90595238Y-79454819D01*
X90595238Y-79454819D02*
X90690476Y-79502438D01*
X90690476Y-79502438D02*
X90738095Y-79550057D01*
X90738095Y-79550057D02*
X90785714Y-79645295D01*
X90785714Y-79645295D02*
X90785714Y-79740533D01*
X90785714Y-79740533D02*
X90738095Y-79883390D01*
X90738095Y-79883390D02*
X90166667Y-80454819D01*
X90166667Y-80454819D02*
X90785714Y-80454819D01*
X133509580Y-93166666D02*
X133557200Y-93214285D01*
X133557200Y-93214285D02*
X133604819Y-93357142D01*
X133604819Y-93357142D02*
X133604819Y-93452380D01*
X133604819Y-93452380D02*
X133557200Y-93595237D01*
X133557200Y-93595237D02*
X133461961Y-93690475D01*
X133461961Y-93690475D02*
X133366723Y-93738094D01*
X133366723Y-93738094D02*
X133176247Y-93785713D01*
X133176247Y-93785713D02*
X133033390Y-93785713D01*
X133033390Y-93785713D02*
X132842914Y-93738094D01*
X132842914Y-93738094D02*
X132747676Y-93690475D01*
X132747676Y-93690475D02*
X132652438Y-93595237D01*
X132652438Y-93595237D02*
X132604819Y-93452380D01*
X132604819Y-93452380D02*
X132604819Y-93357142D01*
X132604819Y-93357142D02*
X132652438Y-93214285D01*
X132652438Y-93214285D02*
X132700057Y-93166666D01*
X132938152Y-92309523D02*
X133604819Y-92309523D01*
X132557200Y-92547618D02*
X133271485Y-92785713D01*
X133271485Y-92785713D02*
X133271485Y-92166666D01*
X109833333Y-93304819D02*
X109500000Y-92828628D01*
X109261905Y-93304819D02*
X109261905Y-92304819D01*
X109261905Y-92304819D02*
X109642857Y-92304819D01*
X109642857Y-92304819D02*
X109738095Y-92352438D01*
X109738095Y-92352438D02*
X109785714Y-92400057D01*
X109785714Y-92400057D02*
X109833333Y-92495295D01*
X109833333Y-92495295D02*
X109833333Y-92638152D01*
X109833333Y-92638152D02*
X109785714Y-92733390D01*
X109785714Y-92733390D02*
X109738095Y-92781009D01*
X109738095Y-92781009D02*
X109642857Y-92828628D01*
X109642857Y-92828628D02*
X109261905Y-92828628D01*
X110738095Y-92304819D02*
X110261905Y-92304819D01*
X110261905Y-92304819D02*
X110214286Y-92781009D01*
X110214286Y-92781009D02*
X110261905Y-92733390D01*
X110261905Y-92733390D02*
X110357143Y-92685771D01*
X110357143Y-92685771D02*
X110595238Y-92685771D01*
X110595238Y-92685771D02*
X110690476Y-92733390D01*
X110690476Y-92733390D02*
X110738095Y-92781009D01*
X110738095Y-92781009D02*
X110785714Y-92876247D01*
X110785714Y-92876247D02*
X110785714Y-93114342D01*
X110785714Y-93114342D02*
X110738095Y-93209580D01*
X110738095Y-93209580D02*
X110690476Y-93257200D01*
X110690476Y-93257200D02*
X110595238Y-93304819D01*
X110595238Y-93304819D02*
X110357143Y-93304819D01*
X110357143Y-93304819D02*
X110261905Y-93257200D01*
X110261905Y-93257200D02*
X110214286Y-93209580D01*
X129833333Y-106104819D02*
X129500000Y-105628628D01*
X129261905Y-106104819D02*
X129261905Y-105104819D01*
X129261905Y-105104819D02*
X129642857Y-105104819D01*
X129642857Y-105104819D02*
X129738095Y-105152438D01*
X129738095Y-105152438D02*
X129785714Y-105200057D01*
X129785714Y-105200057D02*
X129833333Y-105295295D01*
X129833333Y-105295295D02*
X129833333Y-105438152D01*
X129833333Y-105438152D02*
X129785714Y-105533390D01*
X129785714Y-105533390D02*
X129738095Y-105581009D01*
X129738095Y-105581009D02*
X129642857Y-105628628D01*
X129642857Y-105628628D02*
X129261905Y-105628628D01*
X130166667Y-105104819D02*
X130785714Y-105104819D01*
X130785714Y-105104819D02*
X130452381Y-105485771D01*
X130452381Y-105485771D02*
X130595238Y-105485771D01*
X130595238Y-105485771D02*
X130690476Y-105533390D01*
X130690476Y-105533390D02*
X130738095Y-105581009D01*
X130738095Y-105581009D02*
X130785714Y-105676247D01*
X130785714Y-105676247D02*
X130785714Y-105914342D01*
X130785714Y-105914342D02*
X130738095Y-106009580D01*
X130738095Y-106009580D02*
X130690476Y-106057200D01*
X130690476Y-106057200D02*
X130595238Y-106104819D01*
X130595238Y-106104819D02*
X130309524Y-106104819D01*
X130309524Y-106104819D02*
X130214286Y-106057200D01*
X130214286Y-106057200D02*
X130166667Y-106009580D01*
X100778095Y-98278319D02*
X100778095Y-99087842D01*
X100778095Y-99087842D02*
X100825714Y-99183080D01*
X100825714Y-99183080D02*
X100873333Y-99230700D01*
X100873333Y-99230700D02*
X100968571Y-99278319D01*
X100968571Y-99278319D02*
X101159047Y-99278319D01*
X101159047Y-99278319D02*
X101254285Y-99230700D01*
X101254285Y-99230700D02*
X101301904Y-99183080D01*
X101301904Y-99183080D02*
X101349523Y-99087842D01*
X101349523Y-99087842D02*
X101349523Y-98278319D01*
X102254285Y-98611652D02*
X102254285Y-99278319D01*
X102016190Y-98230700D02*
X101778095Y-98944985D01*
X101778095Y-98944985D02*
X102397142Y-98944985D01*
X133454819Y-123738094D02*
X132454819Y-123738094D01*
X132454819Y-123738094D02*
X132454819Y-123499999D01*
X132454819Y-123499999D02*
X132502438Y-123357142D01*
X132502438Y-123357142D02*
X132597676Y-123261904D01*
X132597676Y-123261904D02*
X132692914Y-123214285D01*
X132692914Y-123214285D02*
X132883390Y-123166666D01*
X132883390Y-123166666D02*
X133026247Y-123166666D01*
X133026247Y-123166666D02*
X133216723Y-123214285D01*
X133216723Y-123214285D02*
X133311961Y-123261904D01*
X133311961Y-123261904D02*
X133407200Y-123357142D01*
X133407200Y-123357142D02*
X133454819Y-123499999D01*
X133454819Y-123499999D02*
X133454819Y-123738094D01*
X132550057Y-122785713D02*
X132502438Y-122738094D01*
X132502438Y-122738094D02*
X132454819Y-122642856D01*
X132454819Y-122642856D02*
X132454819Y-122404761D01*
X132454819Y-122404761D02*
X132502438Y-122309523D01*
X132502438Y-122309523D02*
X132550057Y-122261904D01*
X132550057Y-122261904D02*
X132645295Y-122214285D01*
X132645295Y-122214285D02*
X132740533Y-122214285D01*
X132740533Y-122214285D02*
X132883390Y-122261904D01*
X132883390Y-122261904D02*
X133454819Y-122833332D01*
X133454819Y-122833332D02*
X133454819Y-122214285D01*
X83896905Y-102494819D02*
X83896905Y-101494819D01*
X83896905Y-101494819D02*
X84135000Y-101494819D01*
X84135000Y-101494819D02*
X84277857Y-101542438D01*
X84277857Y-101542438D02*
X84373095Y-101637676D01*
X84373095Y-101637676D02*
X84420714Y-101732914D01*
X84420714Y-101732914D02*
X84468333Y-101923390D01*
X84468333Y-101923390D02*
X84468333Y-102066247D01*
X84468333Y-102066247D02*
X84420714Y-102256723D01*
X84420714Y-102256723D02*
X84373095Y-102351961D01*
X84373095Y-102351961D02*
X84277857Y-102447200D01*
X84277857Y-102447200D02*
X84135000Y-102494819D01*
X84135000Y-102494819D02*
X83896905Y-102494819D01*
X85420714Y-102494819D02*
X84849286Y-102494819D01*
X85135000Y-102494819D02*
X85135000Y-101494819D01*
X85135000Y-101494819D02*
X85039762Y-101637676D01*
X85039762Y-101637676D02*
X84944524Y-101732914D01*
X84944524Y-101732914D02*
X84849286Y-101780533D01*
X100166667Y-117607200D02*
X100309524Y-117654819D01*
X100309524Y-117654819D02*
X100547619Y-117654819D01*
X100547619Y-117654819D02*
X100642857Y-117607200D01*
X100642857Y-117607200D02*
X100690476Y-117559580D01*
X100690476Y-117559580D02*
X100738095Y-117464342D01*
X100738095Y-117464342D02*
X100738095Y-117369104D01*
X100738095Y-117369104D02*
X100690476Y-117273866D01*
X100690476Y-117273866D02*
X100642857Y-117226247D01*
X100642857Y-117226247D02*
X100547619Y-117178628D01*
X100547619Y-117178628D02*
X100357143Y-117131009D01*
X100357143Y-117131009D02*
X100261905Y-117083390D01*
X100261905Y-117083390D02*
X100214286Y-117035771D01*
X100214286Y-117035771D02*
X100166667Y-116940533D01*
X100166667Y-116940533D02*
X100166667Y-116845295D01*
X100166667Y-116845295D02*
X100214286Y-116750057D01*
X100214286Y-116750057D02*
X100261905Y-116702438D01*
X100261905Y-116702438D02*
X100357143Y-116654819D01*
X100357143Y-116654819D02*
X100595238Y-116654819D01*
X100595238Y-116654819D02*
X100738095Y-116702438D01*
X101071429Y-116654819D02*
X101309524Y-117654819D01*
X101309524Y-117654819D02*
X101500000Y-116940533D01*
X101500000Y-116940533D02*
X101690476Y-117654819D01*
X101690476Y-117654819D02*
X101928572Y-116654819D01*
X102261905Y-116750057D02*
X102309524Y-116702438D01*
X102309524Y-116702438D02*
X102404762Y-116654819D01*
X102404762Y-116654819D02*
X102642857Y-116654819D01*
X102642857Y-116654819D02*
X102738095Y-116702438D01*
X102738095Y-116702438D02*
X102785714Y-116750057D01*
X102785714Y-116750057D02*
X102833333Y-116845295D01*
X102833333Y-116845295D02*
X102833333Y-116940533D01*
X102833333Y-116940533D02*
X102785714Y-117083390D01*
X102785714Y-117083390D02*
X102214286Y-117654819D01*
X102214286Y-117654819D02*
X102833333Y-117654819D01*
X116364761Y-68280057D02*
X116269523Y-68232438D01*
X116269523Y-68232438D02*
X116174285Y-68137200D01*
X116174285Y-68137200D02*
X116031428Y-67994342D01*
X116031428Y-67994342D02*
X115936190Y-67946723D01*
X115936190Y-67946723D02*
X115840952Y-67946723D01*
X115888571Y-68184819D02*
X115793333Y-68137200D01*
X115793333Y-68137200D02*
X115698095Y-68041961D01*
X115698095Y-68041961D02*
X115650476Y-67851485D01*
X115650476Y-67851485D02*
X115650476Y-67518152D01*
X115650476Y-67518152D02*
X115698095Y-67327676D01*
X115698095Y-67327676D02*
X115793333Y-67232438D01*
X115793333Y-67232438D02*
X115888571Y-67184819D01*
X115888571Y-67184819D02*
X116079047Y-67184819D01*
X116079047Y-67184819D02*
X116174285Y-67232438D01*
X116174285Y-67232438D02*
X116269523Y-67327676D01*
X116269523Y-67327676D02*
X116317142Y-67518152D01*
X116317142Y-67518152D02*
X116317142Y-67851485D01*
X116317142Y-67851485D02*
X116269523Y-68041961D01*
X116269523Y-68041961D02*
X116174285Y-68137200D01*
X116174285Y-68137200D02*
X116079047Y-68184819D01*
X116079047Y-68184819D02*
X115888571Y-68184819D01*
X116698095Y-67280057D02*
X116745714Y-67232438D01*
X116745714Y-67232438D02*
X116840952Y-67184819D01*
X116840952Y-67184819D02*
X117079047Y-67184819D01*
X117079047Y-67184819D02*
X117174285Y-67232438D01*
X117174285Y-67232438D02*
X117221904Y-67280057D01*
X117221904Y-67280057D02*
X117269523Y-67375295D01*
X117269523Y-67375295D02*
X117269523Y-67470533D01*
X117269523Y-67470533D02*
X117221904Y-67613390D01*
X117221904Y-67613390D02*
X116650476Y-68184819D01*
X116650476Y-68184819D02*
X117269523Y-68184819D01*
D11*
%TO.C,R7*%
X109772936Y-99765000D02*
X110227064Y-99765000D01*
X109772936Y-101235000D02*
X110227064Y-101235000D01*
%TO.C,Q1*%
X100340000Y-68730000D02*
X100340000Y-73371000D01*
X100340000Y-68730000D02*
X110580000Y-68730000D01*
X100340000Y-70240000D02*
X110580000Y-70240000D01*
X100340000Y-73371000D02*
X110580000Y-73371000D01*
X103610000Y-68730000D02*
X103610000Y-70240000D01*
X107311000Y-68730000D02*
X107311000Y-70240000D01*
X110580000Y-68730000D02*
X110580000Y-73371000D01*
%TO.C,SW1*%
X77430977Y-116100000D02*
X81530977Y-116100000D01*
X77430977Y-118500000D02*
X77430977Y-116100000D01*
X77430977Y-123300000D02*
X77430977Y-120700000D01*
X77430977Y-127900000D02*
X77430977Y-125500000D01*
X81530977Y-127900000D02*
X77430977Y-127900000D01*
X83530977Y-122500000D02*
X83530977Y-121500000D01*
X84030977Y-122000000D02*
X83030977Y-122000000D01*
X85530977Y-116100000D02*
X89630977Y-116100000D01*
X85530977Y-127900000D02*
X89630977Y-127900000D01*
X89630977Y-127900000D02*
X89630977Y-116100000D01*
X90730977Y-126100000D02*
X91030977Y-125800000D01*
X91030977Y-125800000D02*
X91330977Y-126100000D01*
X91330977Y-126100000D02*
X90730977Y-126100000D01*
X86530977Y-122000000D02*
G75*
G02*
X80530977Y-122000000I-3000000J0D01*
G01*
X80530977Y-122000000D02*
G75*
G02*
X86530977Y-122000000I3000000J0D01*
G01*
%TO.C,Y1*%
X127950000Y-82800000D02*
X127950000Y-95400000D01*
X133050000Y-82800000D02*
X127950000Y-82800000D01*
X133050000Y-95400000D02*
X133050000Y-82800000D01*
%TO.C,SW3*%
X109900000Y-118200000D02*
X110900000Y-118200000D01*
X109900000Y-119200000D02*
X109900000Y-118200000D01*
X111900000Y-120200000D02*
X111900000Y-122800000D01*
X117900000Y-118250000D02*
X112100000Y-118250000D01*
X118000000Y-124750000D02*
X112000000Y-124750000D01*
X118100000Y-120200000D02*
X118100000Y-122800000D01*
%TO.C,R10*%
X109772936Y-108765000D02*
X110227064Y-108765000D01*
X109772936Y-110235000D02*
X110227064Y-110235000D01*
%TO.C,R13*%
X124265000Y-123227064D02*
X124265000Y-122772936D01*
X125735000Y-123227064D02*
X125735000Y-122772936D01*
%TO.C,R18*%
X130227064Y-100265000D02*
X129772936Y-100265000D01*
X130227064Y-101735000D02*
X129772936Y-101735000D01*
%TO.C,R2*%
X121265000Y-123227064D02*
X121265000Y-122772936D01*
X122735000Y-123227064D02*
X122735000Y-122772936D01*
%TO.C,C7*%
X87240113Y-83525000D02*
X87740113Y-83525000D01*
X87490113Y-83275000D02*
X87490113Y-83775000D01*
X90044888Y-82420000D02*
X90044888Y-87580000D01*
X90084888Y-82420000D02*
X90084888Y-87580000D01*
X90124888Y-82421000D02*
X90124888Y-87579000D01*
X90164888Y-82422000D02*
X90164888Y-87578000D01*
X90204888Y-82424000D02*
X90204888Y-87576000D01*
X90244888Y-82427000D02*
X90244888Y-87573000D01*
X90284888Y-82431000D02*
X90284888Y-83960000D01*
X90284888Y-86040000D02*
X90284888Y-87569000D01*
X90324888Y-82435000D02*
X90324888Y-83960000D01*
X90324888Y-86040000D02*
X90324888Y-87565000D01*
X90364888Y-82439000D02*
X90364888Y-83960000D01*
X90364888Y-86040000D02*
X90364888Y-87561000D01*
X90404888Y-82444000D02*
X90404888Y-83960000D01*
X90404888Y-86040000D02*
X90404888Y-87556000D01*
X90444888Y-82450000D02*
X90444888Y-83960000D01*
X90444888Y-86040000D02*
X90444888Y-87550000D01*
X90484888Y-82457000D02*
X90484888Y-83960000D01*
X90484888Y-86040000D02*
X90484888Y-87543000D01*
X90524888Y-82464000D02*
X90524888Y-83960000D01*
X90524888Y-86040000D02*
X90524888Y-87536000D01*
X90564888Y-82472000D02*
X90564888Y-83960000D01*
X90564888Y-86040000D02*
X90564888Y-87528000D01*
X90604888Y-82480000D02*
X90604888Y-83960000D01*
X90604888Y-86040000D02*
X90604888Y-87520000D01*
X90644888Y-82489000D02*
X90644888Y-83960000D01*
X90644888Y-86040000D02*
X90644888Y-87511000D01*
X90684888Y-82499000D02*
X90684888Y-83960000D01*
X90684888Y-86040000D02*
X90684888Y-87501000D01*
X90724888Y-82509000D02*
X90724888Y-83960000D01*
X90724888Y-86040000D02*
X90724888Y-87491000D01*
X90765888Y-82520000D02*
X90765888Y-83960000D01*
X90765888Y-86040000D02*
X90765888Y-87480000D01*
X90805888Y-82532000D02*
X90805888Y-83960000D01*
X90805888Y-86040000D02*
X90805888Y-87468000D01*
X90845888Y-82545000D02*
X90845888Y-83960000D01*
X90845888Y-86040000D02*
X90845888Y-87455000D01*
X90885888Y-82558000D02*
X90885888Y-83960000D01*
X90885888Y-86040000D02*
X90885888Y-87442000D01*
X90925888Y-82572000D02*
X90925888Y-83960000D01*
X90925888Y-86040000D02*
X90925888Y-87428000D01*
X90965888Y-82586000D02*
X90965888Y-83960000D01*
X90965888Y-86040000D02*
X90965888Y-87414000D01*
X91005888Y-82602000D02*
X91005888Y-83960000D01*
X91005888Y-86040000D02*
X91005888Y-87398000D01*
X91045888Y-82618000D02*
X91045888Y-83960000D01*
X91045888Y-86040000D02*
X91045888Y-87382000D01*
X91085888Y-82635000D02*
X91085888Y-83960000D01*
X91085888Y-86040000D02*
X91085888Y-87365000D01*
X91125888Y-82652000D02*
X91125888Y-83960000D01*
X91125888Y-86040000D02*
X91125888Y-87348000D01*
X91165888Y-82671000D02*
X91165888Y-83960000D01*
X91165888Y-86040000D02*
X91165888Y-87329000D01*
X91205888Y-82690000D02*
X91205888Y-83960000D01*
X91205888Y-86040000D02*
X91205888Y-87310000D01*
X91245888Y-82710000D02*
X91245888Y-83960000D01*
X91245888Y-86040000D02*
X91245888Y-87290000D01*
X91285888Y-82732000D02*
X91285888Y-83960000D01*
X91285888Y-86040000D02*
X91285888Y-87268000D01*
X91325888Y-82753000D02*
X91325888Y-83960000D01*
X91325888Y-86040000D02*
X91325888Y-87247000D01*
X91365888Y-82776000D02*
X91365888Y-83960000D01*
X91365888Y-86040000D02*
X91365888Y-87224000D01*
X91405888Y-82800000D02*
X91405888Y-83960000D01*
X91405888Y-86040000D02*
X91405888Y-87200000D01*
X91445888Y-82825000D02*
X91445888Y-83960000D01*
X91445888Y-86040000D02*
X91445888Y-87175000D01*
X91485888Y-82851000D02*
X91485888Y-83960000D01*
X91485888Y-86040000D02*
X91485888Y-87149000D01*
X91525888Y-82878000D02*
X91525888Y-83960000D01*
X91525888Y-86040000D02*
X91525888Y-87122000D01*
X91565888Y-82905000D02*
X91565888Y-83960000D01*
X91565888Y-86040000D02*
X91565888Y-87095000D01*
X91605888Y-82935000D02*
X91605888Y-83960000D01*
X91605888Y-86040000D02*
X91605888Y-87065000D01*
X91645888Y-82965000D02*
X91645888Y-83960000D01*
X91645888Y-86040000D02*
X91645888Y-87035000D01*
X91685888Y-82996000D02*
X91685888Y-83960000D01*
X91685888Y-86040000D02*
X91685888Y-87004000D01*
X91725888Y-83029000D02*
X91725888Y-83960000D01*
X91725888Y-86040000D02*
X91725888Y-86971000D01*
X91765888Y-83063000D02*
X91765888Y-83960000D01*
X91765888Y-86040000D02*
X91765888Y-86937000D01*
X91805888Y-83099000D02*
X91805888Y-83960000D01*
X91805888Y-86040000D02*
X91805888Y-86901000D01*
X91845888Y-83136000D02*
X91845888Y-83960000D01*
X91845888Y-86040000D02*
X91845888Y-86864000D01*
X91885888Y-83174000D02*
X91885888Y-83960000D01*
X91885888Y-86040000D02*
X91885888Y-86826000D01*
X91925888Y-83215000D02*
X91925888Y-83960000D01*
X91925888Y-86040000D02*
X91925888Y-86785000D01*
X91965888Y-83257000D02*
X91965888Y-83960000D01*
X91965888Y-86040000D02*
X91965888Y-86743000D01*
X92005888Y-83301000D02*
X92005888Y-83960000D01*
X92005888Y-86040000D02*
X92005888Y-86699000D01*
X92045888Y-83347000D02*
X92045888Y-83960000D01*
X92045888Y-86040000D02*
X92045888Y-86653000D01*
X92085888Y-83395000D02*
X92085888Y-83960000D01*
X92085888Y-86040000D02*
X92085888Y-86605000D01*
X92125888Y-83446000D02*
X92125888Y-83960000D01*
X92125888Y-86040000D02*
X92125888Y-86554000D01*
X92165888Y-83500000D02*
X92165888Y-83960000D01*
X92165888Y-86040000D02*
X92165888Y-86500000D01*
X92205888Y-83557000D02*
X92205888Y-83960000D01*
X92205888Y-86040000D02*
X92205888Y-86443000D01*
X92245888Y-83617000D02*
X92245888Y-83960000D01*
X92245888Y-86040000D02*
X92245888Y-86383000D01*
X92285888Y-83681000D02*
X92285888Y-83960000D01*
X92285888Y-86040000D02*
X92285888Y-86319000D01*
X92325888Y-83749000D02*
X92325888Y-83960000D01*
X92325888Y-86040000D02*
X92325888Y-86251000D01*
X92365888Y-83822000D02*
X92365888Y-86178000D01*
X92405888Y-83902000D02*
X92405888Y-86098000D01*
X92445888Y-83989000D02*
X92445888Y-86011000D01*
X92485888Y-84085000D02*
X92485888Y-85915000D01*
X92525888Y-84195000D02*
X92525888Y-85805000D01*
X92565888Y-84323000D02*
X92565888Y-85677000D01*
X92605888Y-84482000D02*
X92605888Y-85518000D01*
X92645888Y-84716000D02*
X92645888Y-85284000D01*
X92664888Y-85000000D02*
G75*
G02*
X87424888Y-85000000I-2620000J0D01*
G01*
X87424888Y-85000000D02*
G75*
G02*
X92664888Y-85000000I2620000J0D01*
G01*
%TO.C,C6*%
X127090000Y-122288748D02*
X127090000Y-123711252D01*
X128910000Y-122288748D02*
X128910000Y-123711252D01*
%TO.C,R8*%
X109772936Y-102765000D02*
X110227064Y-102765000D01*
X109772936Y-104235000D02*
X110227064Y-104235000D01*
%TO.C,U2*%
X115170000Y-76790000D02*
X115170000Y-112590000D01*
X115170000Y-112590000D02*
X125450000Y-112590000D01*
X117660000Y-76850000D02*
X117660000Y-112530000D01*
X117660000Y-112530000D02*
X119310000Y-112530000D01*
X121310000Y-112530000D02*
X122960000Y-112530000D01*
X122960000Y-76850000D02*
X117660000Y-76850000D01*
X122960000Y-112530000D02*
X122960000Y-76850000D01*
X125450000Y-76790000D02*
X115170000Y-76790000D01*
X125450000Y-112590000D02*
X125450000Y-76790000D01*
X119310000Y-112530000D02*
G75*
G02*
X121310000Y-112530000I1000000J0D01*
G01*
%TO.C,R1*%
X93227064Y-108265000D02*
X92772936Y-108265000D01*
X93227064Y-109735000D02*
X92772936Y-109735000D01*
%TO.C,Q3*%
X122340000Y-68730000D02*
X122340000Y-73371000D01*
X122340000Y-68730000D02*
X132580000Y-68730000D01*
X122340000Y-70240000D02*
X132580000Y-70240000D01*
X122340000Y-73371000D02*
X132580000Y-73371000D01*
X125610000Y-68730000D02*
X125610000Y-70240000D01*
X129311000Y-68730000D02*
X129311000Y-70240000D01*
X132580000Y-68730000D02*
X132580000Y-73371000D01*
%TO.C,R12*%
X92772936Y-105265000D02*
X93227064Y-105265000D01*
X92772936Y-106735000D02*
X93227064Y-106735000D01*
%TO.C,R11*%
X109772936Y-111765000D02*
X110227064Y-111765000D01*
X109772936Y-113235000D02*
X110227064Y-113235000D01*
%TO.C,C1*%
X83711252Y-71090000D02*
X82288748Y-71090000D01*
X83711252Y-72910000D02*
X82288748Y-72910000D01*
%TO.C,R6*%
X109772936Y-96765000D02*
X110227064Y-96765000D01*
X109772936Y-98235000D02*
X110227064Y-98235000D01*
%TO.C,R4*%
X109772936Y-114265000D02*
X110227064Y-114265000D01*
X109772936Y-115735000D02*
X110227064Y-115735000D01*
%TO.C,U1*%
X89730000Y-70830000D02*
X89730000Y-71100000D01*
X89730000Y-77730000D02*
X89730000Y-77460000D01*
X96150000Y-70830000D02*
X89730000Y-70830000D01*
X96150000Y-77730000D02*
X89730000Y-77730000D01*
X88310000Y-71140000D02*
X88070000Y-70810000D01*
X88550000Y-70810000D01*
X88310000Y-71140000D01*
G36*
X88310000Y-71140000D02*
G01*
X88070000Y-70810000D01*
X88550000Y-70810000D01*
X88310000Y-71140000D01*
G37*
%TO.C,R9*%
X109772936Y-105765000D02*
X110227064Y-105765000D01*
X109772936Y-107235000D02*
X110227064Y-107235000D01*
%TO.C,C3*%
X79649000Y-67284000D02*
X79649000Y-66716000D01*
X79689000Y-67518000D02*
X79689000Y-66482000D01*
X79729000Y-67677000D02*
X79729000Y-66323000D01*
X79769000Y-67805000D02*
X79769000Y-66195000D01*
X79809000Y-67915000D02*
X79809000Y-66085000D01*
X79849000Y-68011000D02*
X79849000Y-65989000D01*
X79889000Y-68098000D02*
X79889000Y-65902000D01*
X79929000Y-68178000D02*
X79929000Y-65822000D01*
X79969000Y-65960000D02*
X79969000Y-65749000D01*
X79969000Y-68251000D02*
X79969000Y-68040000D01*
X80009000Y-65960000D02*
X80009000Y-65681000D01*
X80009000Y-68319000D02*
X80009000Y-68040000D01*
X80049000Y-65960000D02*
X80049000Y-65617000D01*
X80049000Y-68383000D02*
X80049000Y-68040000D01*
X80089000Y-65960000D02*
X80089000Y-65557000D01*
X80089000Y-68443000D02*
X80089000Y-68040000D01*
X80129000Y-65960000D02*
X80129000Y-65500000D01*
X80129000Y-68500000D02*
X80129000Y-68040000D01*
X80169000Y-65960000D02*
X80169000Y-65446000D01*
X80169000Y-68554000D02*
X80169000Y-68040000D01*
X80209000Y-65960000D02*
X80209000Y-65395000D01*
X80209000Y-68605000D02*
X80209000Y-68040000D01*
X80249000Y-65960000D02*
X80249000Y-65347000D01*
X80249000Y-68653000D02*
X80249000Y-68040000D01*
X80289000Y-65960000D02*
X80289000Y-65301000D01*
X80289000Y-68699000D02*
X80289000Y-68040000D01*
X80329000Y-65960000D02*
X80329000Y-65257000D01*
X80329000Y-68743000D02*
X80329000Y-68040000D01*
X80369000Y-65960000D02*
X80369000Y-65215000D01*
X80369000Y-68785000D02*
X80369000Y-68040000D01*
X80409000Y-65960000D02*
X80409000Y-65174000D01*
X80409000Y-68826000D02*
X80409000Y-68040000D01*
X80449000Y-65960000D02*
X80449000Y-65136000D01*
X80449000Y-68864000D02*
X80449000Y-68040000D01*
X80489000Y-65960000D02*
X80489000Y-65099000D01*
X80489000Y-68901000D02*
X80489000Y-68040000D01*
X80529000Y-65960000D02*
X80529000Y-65063000D01*
X80529000Y-68937000D02*
X80529000Y-68040000D01*
X80569000Y-65960000D02*
X80569000Y-65029000D01*
X80569000Y-68971000D02*
X80569000Y-68040000D01*
X80609000Y-65960000D02*
X80609000Y-64996000D01*
X80609000Y-69004000D02*
X80609000Y-68040000D01*
X80649000Y-65960000D02*
X80649000Y-64965000D01*
X80649000Y-69035000D02*
X80649000Y-68040000D01*
X80689000Y-65960000D02*
X80689000Y-64935000D01*
X80689000Y-69065000D02*
X80689000Y-68040000D01*
X80729000Y-65960000D02*
X80729000Y-64905000D01*
X80729000Y-69095000D02*
X80729000Y-68040000D01*
X80769000Y-65960000D02*
X80769000Y-64878000D01*
X80769000Y-69122000D02*
X80769000Y-68040000D01*
X80809000Y-65960000D02*
X80809000Y-64851000D01*
X80809000Y-69149000D02*
X80809000Y-68040000D01*
X80849000Y-65960000D02*
X80849000Y-64825000D01*
X80849000Y-69175000D02*
X80849000Y-68040000D01*
X80889000Y-65960000D02*
X80889000Y-64800000D01*
X80889000Y-69200000D02*
X80889000Y-68040000D01*
X80929000Y-65960000D02*
X80929000Y-64776000D01*
X80929000Y-69224000D02*
X80929000Y-68040000D01*
X80969000Y-65960000D02*
X80969000Y-64753000D01*
X80969000Y-69247000D02*
X80969000Y-68040000D01*
X81009000Y-65960000D02*
X81009000Y-64732000D01*
X81009000Y-69268000D02*
X81009000Y-68040000D01*
X81049000Y-65960000D02*
X81049000Y-64710000D01*
X81049000Y-69290000D02*
X81049000Y-68040000D01*
X81089000Y-65960000D02*
X81089000Y-64690000D01*
X81089000Y-69310000D02*
X81089000Y-68040000D01*
X81129000Y-65960000D02*
X81129000Y-64671000D01*
X81129000Y-69329000D02*
X81129000Y-68040000D01*
X81169000Y-65960000D02*
X81169000Y-64652000D01*
X81169000Y-69348000D02*
X81169000Y-68040000D01*
X81209000Y-65960000D02*
X81209000Y-64635000D01*
X81209000Y-69365000D02*
X81209000Y-68040000D01*
X81249000Y-65960000D02*
X81249000Y-64618000D01*
X81249000Y-69382000D02*
X81249000Y-68040000D01*
X81289000Y-65960000D02*
X81289000Y-64602000D01*
X81289000Y-69398000D02*
X81289000Y-68040000D01*
X81329000Y-65960000D02*
X81329000Y-64586000D01*
X81329000Y-69414000D02*
X81329000Y-68040000D01*
X81369000Y-65960000D02*
X81369000Y-64572000D01*
X81369000Y-69428000D02*
X81369000Y-68040000D01*
X81409000Y-65960000D02*
X81409000Y-64558000D01*
X81409000Y-69442000D02*
X81409000Y-68040000D01*
X81449000Y-65960000D02*
X81449000Y-64545000D01*
X81449000Y-69455000D02*
X81449000Y-68040000D01*
X81489000Y-65960000D02*
X81489000Y-64532000D01*
X81489000Y-69468000D02*
X81489000Y-68040000D01*
X81529000Y-65960000D02*
X81529000Y-64520000D01*
X81529000Y-69480000D02*
X81529000Y-68040000D01*
X81570000Y-65960000D02*
X81570000Y-64509000D01*
X81570000Y-69491000D02*
X81570000Y-68040000D01*
X81610000Y-65960000D02*
X81610000Y-64499000D01*
X81610000Y-69501000D02*
X81610000Y-68040000D01*
X81650000Y-65960000D02*
X81650000Y-64489000D01*
X81650000Y-69511000D02*
X81650000Y-68040000D01*
X81690000Y-65960000D02*
X81690000Y-64480000D01*
X81690000Y-69520000D02*
X81690000Y-68040000D01*
X81730000Y-65960000D02*
X81730000Y-64472000D01*
X81730000Y-69528000D02*
X81730000Y-68040000D01*
X81770000Y-65960000D02*
X81770000Y-64464000D01*
X81770000Y-69536000D02*
X81770000Y-68040000D01*
X81810000Y-65960000D02*
X81810000Y-64457000D01*
X81810000Y-69543000D02*
X81810000Y-68040000D01*
X81850000Y-65960000D02*
X81850000Y-64450000D01*
X81850000Y-69550000D02*
X81850000Y-68040000D01*
X81890000Y-65960000D02*
X81890000Y-64444000D01*
X81890000Y-69556000D02*
X81890000Y-68040000D01*
X81930000Y-65960000D02*
X81930000Y-64439000D01*
X81930000Y-69561000D02*
X81930000Y-68040000D01*
X81970000Y-65960000D02*
X81970000Y-64435000D01*
X81970000Y-69565000D02*
X81970000Y-68040000D01*
X82010000Y-65960000D02*
X82010000Y-64431000D01*
X82010000Y-69569000D02*
X82010000Y-68040000D01*
X82050000Y-69573000D02*
X82050000Y-64427000D01*
X82090000Y-69576000D02*
X82090000Y-64424000D01*
X82130000Y-69578000D02*
X82130000Y-64422000D01*
X82170000Y-69579000D02*
X82170000Y-64421000D01*
X82210000Y-69580000D02*
X82210000Y-64420000D01*
X82250000Y-69580000D02*
X82250000Y-64420000D01*
X84804775Y-68725000D02*
X84804775Y-68225000D01*
X85054775Y-68475000D02*
X84554775Y-68475000D01*
X84870000Y-67000000D02*
G75*
G02*
X79630000Y-67000000I-2620000J0D01*
G01*
X79630000Y-67000000D02*
G75*
G02*
X84870000Y-67000000I2620000J0D01*
G01*
%TO.C,C5*%
X134090000Y-87711252D02*
X134090000Y-86288748D01*
X135910000Y-87711252D02*
X135910000Y-86288748D01*
%TO.C,U5*%
X105360000Y-131975000D02*
X105360000Y-131775000D01*
X110560000Y-131975000D02*
X110560000Y-131775000D01*
X110760000Y-129415000D02*
X108000000Y-129415000D01*
X110560000Y-131975000D02*
G75*
G02*
X105360000Y-131975000I-2600000J0D01*
G01*
%TO.C,R17*%
X129772936Y-97736556D02*
X130227064Y-97736556D01*
X129772936Y-99206556D02*
X130227064Y-99206556D01*
%TO.C,C2*%
X89288748Y-79090000D02*
X90711252Y-79090000D01*
X89288748Y-80910000D02*
X90711252Y-80910000D01*
%TO.C,C4*%
X134090000Y-93711252D02*
X134090000Y-92288748D01*
X135910000Y-93711252D02*
X135910000Y-92288748D01*
%TO.C,R5*%
X109772936Y-93765000D02*
X110227064Y-93765000D01*
X109772936Y-95235000D02*
X110227064Y-95235000D01*
%TO.C,R3*%
X130227064Y-103265000D02*
X129772936Y-103265000D01*
X130227064Y-104735000D02*
X129772936Y-104735000D01*
%TO.C,U4*%
X97370000Y-99352500D02*
X99000000Y-99352500D01*
X97370000Y-100982500D02*
X97370000Y-99352500D01*
D10*
X97730000Y-99712500D02*
X97730000Y-112412500D01*
X97730000Y-112412500D02*
X105350000Y-112412500D01*
X105350000Y-99712500D02*
X97730000Y-99712500D01*
X105350000Y-112412500D02*
X105350000Y-99712500D01*
D11*
%TO.C,D2*%
X129890000Y-120340000D02*
X129890000Y-124750000D01*
X132110000Y-120340000D02*
X129890000Y-120340000D01*
X132110000Y-124750000D02*
X132110000Y-120340000D01*
%TO.C,D1*%
X82075000Y-104455000D02*
X82075000Y-104920000D01*
X82075000Y-107080000D02*
X82075000Y-107545000D01*
X82075000Y-104455170D02*
G75*
G02*
X87422815Y-104919173I2560000J-1544830D01*
G01*
X82380316Y-104920000D02*
G75*
G02*
X86889479Y-104919571I2254684J-1080000D01*
G01*
X86889479Y-107080429D02*
G75*
G02*
X82380316Y-107080000I-2254479J1080429D01*
G01*
X87422815Y-107080827D02*
G75*
G02*
X82075000Y-107544830I-2787815J1080827D01*
G01*
%TO.C,SW2*%
X96400000Y-118200000D02*
X97400000Y-118200000D01*
X96400000Y-119200000D02*
X96400000Y-118200000D01*
X98400000Y-120200000D02*
X98400000Y-122800000D01*
X104400000Y-118250000D02*
X98600000Y-118250000D01*
X104500000Y-124750000D02*
X98500000Y-124750000D01*
X104600000Y-120200000D02*
X104600000Y-122800000D01*
%TO.C,Q2*%
X111340000Y-68730000D02*
X111340000Y-73371000D01*
X111340000Y-68730000D02*
X121580000Y-68730000D01*
X111340000Y-70240000D02*
X121580000Y-70240000D01*
X111340000Y-73371000D02*
X121580000Y-73371000D01*
X114610000Y-68730000D02*
X114610000Y-70240000D01*
X118311000Y-68730000D02*
X118311000Y-70240000D01*
X121580000Y-68730000D02*
X121580000Y-73371000D01*
%TD*%
M02*
