M48
; DRILL file {KiCad 8.0.6} date 2025-02-22T19:08:32+0100
; FORMAT={-:-/ absolute / inch / decimal}
; #@! TF.CreationDate,2025-02-22T19:08:32+01:00
; #@! TF.GenerationSoftware,Kicad,Pcbnew,8.0.6
; #@! TF.FileFunction,Plated,1,2,PTH
FMAT,2
INCH
; #@! TA.AperFunction,Plated,PTH,ViaDrill
T1C0.0118
; #@! TA.AperFunction,Plated,PTH,ComponentDrill
T2C0.0315
; #@! TA.AperFunction,Plated,PTH,ComponentDrill
T3C0.0335
; #@! TA.AperFunction,Plated,PTH,ComponentDrill
T4C0.0354
; #@! TA.AperFunction,Plated,PTH,ComponentDrill
T5C0.0394
; #@! TA.AperFunction,Plated,PTH,ComponentDrill
T6C0.0433
; #@! TA.AperFunction,Plated,PTH,ComponentDrill
T7C0.0591
; #@! TA.AperFunction,Plated,PTH,ComponentDrill
T8C0.0610
%
G90
G05
T1
X3.7795Y-4.1732
X4.2077Y-4.6407
X4.4882Y-3.5827
X4.7638Y-3.5433
X5.0Y-4.1339
X5.0496Y-4.6354
X5.3543Y-3.5433
T2
X3.189Y-2.6378
X3.2874Y-2.6378
X3.4959Y-3.3465
X3.5943Y-3.3465
X3.8976Y-3.9757
X3.8976Y-4.0757
X3.8976Y-4.1757
X3.8976Y-4.2757
X3.8976Y-4.3757
X4.0976Y-3.9757
X4.0976Y-4.0757
X4.0976Y-4.1757
X4.0976Y-4.2757
X4.0976Y-4.3757
X4.5866Y-3.078
X4.5866Y-3.178
X4.5866Y-3.278
X4.5866Y-3.378
X4.5866Y-3.478
X4.5866Y-3.578
X4.5866Y-3.678
X4.5866Y-3.778
X4.5866Y-3.878
X4.5866Y-3.978
X4.5866Y-4.078
X4.5866Y-4.178
X4.5866Y-4.278
X4.5866Y-4.378
X4.8866Y-3.078
X4.8866Y-3.178
X4.8866Y-3.278
X4.8866Y-3.378
X4.8866Y-3.478
X4.8866Y-3.578
X4.8866Y-3.678
X4.8866Y-3.778
X4.8866Y-3.878
X4.8866Y-3.978
X4.8866Y-4.078
X4.8866Y-4.178
X4.8866Y-4.278
X4.8866Y-4.378
T3
X4.3158Y-2.5859
X4.4929Y-2.5859
X4.6701Y-2.5859
X4.8473Y-2.5859
T4
X3.2571Y-4.1732
X3.3071Y-4.1732
X3.3571Y-4.1732
X3.4071Y-4.1732
X4.152Y-5.1407
X4.252Y-5.1407
X4.352Y-5.1407
T5
X3.013Y-4.7047
X3.013Y-4.9016
X3.5839Y-4.7047
X3.5839Y-4.8031
X3.5839Y-4.9016
T6
X4.052Y-2.8346
X4.152Y-2.8346
X4.252Y-2.8346
X4.485Y-2.8346
X4.585Y-2.8346
X4.685Y-2.8346
X4.9181Y-2.8346
X5.0181Y-2.8346
X5.1181Y-2.8346
T8
X3.463Y-2.64
X3.7386Y-2.64
T7
G00X3.3142Y-4.5827
M15
G01X3.263Y-4.5827
M16
G05
G00X3.3142Y-5.0236
M15
G01X3.263Y-5.0236
M16
G05
M30
